<svg width="81" height="81" viewBox="0 0 81 81" fill="none" xmlns="http://www.w3.org/2000/svg">
<path d="M0.584778 40.4294C0.584778 18.3458 18.4871 0.443512 40.5707 0.443512C62.6542 0.443512 80.5565 18.3458 80.5565 40.4294C80.5565 62.513 62.6542 80.4153 40.5707 80.4153C18.4871 80.4153 0.584778 62.513 0.584778 40.4294Z" fill="#22C55E"/>
<path d="M48.5697 36.4299C48.5697 38.5516 47.727 40.5864 46.2268 42.0867C44.7267 43.587 42.6921 44.4299 40.5707 44.4299C38.4492 44.4299 36.4146 43.587 34.9145 42.0867C33.4143 40.5864 32.5716 38.5516 32.5716 36.4299" stroke="white" stroke-width="2" stroke-linecap="round" stroke-linejoin="round"/>
<path d="M22.7787 28.4988H58.3626" stroke="white" stroke-width="2" stroke-linecap="round" stroke-linejoin="round"/>
<path d="M23.3727 27.3649C22.8535 28.0572 22.5728 28.8993 22.5728 29.7647V56.4275C22.5728 57.4883 22.9942 58.5056 23.7442 59.2556C24.4943 60.0057 25.5116 60.427 26.5723 60.427H54.569C55.6298 60.427 56.6471 60.0057 57.3971 59.2556C58.1472 58.5056 58.5686 57.4883 58.5686 56.4275V29.7647C58.5686 28.8993 58.2879 28.0572 57.7686 27.3649L53.7691 22.0316C53.3966 21.5348 52.9135 21.1317 52.3581 20.854C51.8028 20.5763 51.1904 20.4318 50.5695 20.4318H30.5718C29.9509 20.4318 29.3386 20.5763 28.7832 20.854C28.2278 21.1317 27.7448 21.5348 27.3722 22.0316L23.3727 27.3649Z" stroke="white" stroke-width="2" stroke-linecap="round" stroke-linejoin="round"/>
</svg>
