<svg width="49" height="49" viewBox="0 0 49 49" fill="none" xmlns="http://www.w3.org/2000/svg">
<path d="M32.5697 20.4412C32.5697 22.5629 31.7269 24.5977 30.2268 26.098C28.7267 27.5983 26.6921 28.4412 24.5706 28.4412C22.4492 28.4412 20.4146 27.5983 18.9144 26.098C17.4143 24.5977 16.5716 22.5629 16.5716 20.4412" stroke="#22C55E" stroke-width="2" stroke-linecap="round" stroke-linejoin="round"/>
<path d="M6.77873 12.5101H42.3625" stroke="#22C55E" stroke-width="2" stroke-linecap="round" stroke-linejoin="round"/>
<path d="M7.37266 11.3762C6.85343 12.0685 6.57275 12.9106 6.57275 13.7759V40.4388C6.57275 41.4995 6.99413 42.5168 7.74419 43.2669C8.49425 44.017 9.51154 44.4383 10.5723 44.4383H38.569C39.6297 44.4383 40.647 44.017 41.3971 43.2669C42.1471 42.5168 42.5685 41.4995 42.5685 40.4388V13.7759C42.5685 12.9106 42.2878 12.0685 41.7686 11.3762L37.7691 6.04285C37.3965 5.54612 36.9135 5.14296 36.3581 4.86528C35.8027 4.5876 35.1904 4.44304 34.5695 4.44304H14.5718C13.9509 4.44304 13.3385 4.5876 12.7832 4.86528C12.2278 5.14296 11.7447 5.54612 11.3722 6.04285L7.37266 11.3762Z" stroke="#22C55E" stroke-width="2" stroke-linecap="round" stroke-linejoin="round"/>
</svg>
