<svg width="57" height="57" viewBox="0 0 57 57" fill="none" xmlns="http://www.w3.org/2000/svg">
<path d="M0.0423584 28.3455C0.0423584 12.8827 12.5774 0.347656 28.0402 0.347656V0.347656C43.503 0.347656 56.0381 12.8827 56.0381 28.3455V28.3455C56.0381 43.8083 43.503 56.3434 28.0402 56.3434V56.3434C12.5774 56.3434 0.0423584 43.8083 0.0423584 28.3455V28.3455Z" fill="#FCE7F3"/>
<g clip-path="url(#clip0_46_4555)">
<path d="M33.8705 30.0114C35.1115 28.7954 36.3691 27.3378 36.3691 25.4305C36.3691 24.2156 35.8865 23.0504 35.0274 22.1913C34.1683 21.3322 33.0032 20.8496 31.7882 20.8496C30.3223 20.8496 29.2896 21.2661 28.0402 22.5154C26.7909 21.2661 25.7581 20.8496 24.2922 20.8496C23.0773 20.8496 21.9121 21.3322 21.053 22.1913C20.1939 23.0504 19.7113 24.2156 19.7113 25.4305C19.7113 27.3462 20.9606 28.8037 22.21 30.0114L28.0402 35.8417L33.8705 30.0114Z" stroke="#EC4899" stroke-width="2" stroke-linecap="round" stroke-linejoin="round"/>
</g>
<defs>
<clipPath id="clip0_46_4555">
<rect width="19.9894" height="19.9894" fill="white" transform="translate(18.0455 18.3508)"/>
</clipPath>
</defs>
</svg>
