<svg width="41" height="41" viewBox="0 0 41 41" fill="none" xmlns="http://www.w3.org/2000/svg">
<path d="M0.982056 20.7749C0.982056 9.73071 9.93517 0.777588 20.9794 0.777588C32.0236 0.777588 40.9768 9.73071 40.9768 20.7749C40.9768 31.8192 32.0236 40.7723 20.9794 40.7723C9.93517 40.7723 0.982056 31.8192 0.982056 20.7749Z" fill="#F3E8FF"/>
<g clip-path="url(#clip0_46_4871)">
<path d="M19.2533 23.682C19.179 23.3938 19.0287 23.1307 18.8182 22.9202C18.6077 22.7097 18.3447 22.5595 18.0564 22.4851L12.9467 21.1675C12.8595 21.1427 12.7828 21.0902 12.7281 21.0179C12.6735 20.9456 12.6439 20.8575 12.6439 20.7669C12.6439 20.6762 12.6735 20.5881 12.7281 20.5158C12.7828 20.4435 12.8595 20.391 12.9467 20.3662L18.0564 19.0478C18.3446 18.9735 18.6076 18.8234 18.818 18.613C19.0285 18.4027 19.1788 18.1398 19.2533 17.8517L20.5709 12.742C20.5954 12.6544 20.6479 12.5773 20.7203 12.5224C20.7927 12.4675 20.8811 12.4377 20.972 12.4377C21.0629 12.4377 21.1513 12.4675 21.2237 12.5224C21.2961 12.5773 21.3485 12.6544 21.373 12.742L22.6898 17.8517C22.7642 18.14 22.9144 18.403 23.1249 18.6135C23.3354 18.824 23.5985 18.9743 23.8867 19.0486L28.9965 20.3654C29.0844 20.3897 29.1618 20.4421 29.2171 20.5146C29.2723 20.5871 29.3022 20.6757 29.3022 20.7669C29.3022 20.858 29.2723 20.9467 29.2171 21.0192C29.1618 21.0917 29.0844 21.1441 28.9965 21.1683L23.8867 22.4851C23.5985 22.5595 23.3354 22.7097 23.1249 22.9202C22.9144 23.1307 22.7642 23.3938 22.6898 23.682L21.3722 28.7918C21.3477 28.8793 21.2952 28.9564 21.2228 29.0113C21.1504 29.0663 21.062 29.096 20.9712 29.096C20.8803 29.096 20.7919 29.0663 20.7195 29.0113C20.6471 28.9564 20.5946 28.8793 20.5701 28.7918L19.2533 23.682Z" stroke="#A855F7" stroke-width="2" stroke-linecap="round" stroke-linejoin="round"/>
<path d="M27.6346 13.271V16.6026" stroke="#A855F7" stroke-width="2" stroke-linecap="round" stroke-linejoin="round"/>
<path d="M29.3004 14.9368H25.9689" stroke="#A855F7" stroke-width="2" stroke-linecap="round" stroke-linejoin="round"/>
<path d="M14.3083 24.9314V26.5981" stroke="#A855F7" stroke-width="2" stroke-linecap="round" stroke-linejoin="round"/>
<path d="M15.1421 25.7642H13.4755" stroke="#A855F7" stroke-width="2" stroke-linecap="round" stroke-linejoin="round"/>
</g>
<defs>
<clipPath id="clip0_46_4871">
<rect width="19.9894" height="19.9894" fill="white" transform="translate(10.9768 10.7722)"/>
</clipPath>
</defs>
</svg>
