<svg width="41" height="41" viewBox="0 0 41 41" fill="none" xmlns="http://www.w3.org/2000/svg">
<g clip-path="url(#clip0_46_4882)">
<path d="M27.6346 18.2533V15.7547C27.6346 15.3129 27.4591 14.8892 27.1467 14.5768C26.8343 14.2644 26.4106 14.0889 25.9688 14.0889H15.9741C15.5323 14.0889 15.1086 14.2644 14.7962 14.5768C14.4839 14.8892 14.3083 15.3129 14.3083 15.7547V18.2533" stroke="#B45309" stroke-width="2" stroke-linecap="round" stroke-linejoin="round"/>
<path d="M12.6426 24.0837C12.6426 24.5255 12.8181 24.9492 13.1305 25.2615C13.4429 25.5739 13.8666 25.7494 14.3084 25.7494H27.6346C28.0764 25.7494 28.5001 25.5739 28.8125 25.2615C29.1249 24.9492 29.3004 24.5255 29.3004 24.0837V19.9192C29.3004 19.4774 29.1249 19.0537 28.8125 18.7413C28.5001 18.4289 28.0764 18.2534 27.6346 18.2534C27.1928 18.2534 26.7691 18.4289 26.4567 18.7413C26.1444 19.0537 25.9688 19.4774 25.9688 19.9192V21.1685C25.9688 21.279 25.925 21.3849 25.8469 21.463C25.7688 21.5411 25.6629 21.585 25.5524 21.585H16.3906C16.2801 21.585 16.1742 21.5411 16.0961 21.463C16.018 21.3849 15.9741 21.279 15.9741 21.1685V19.9192C15.9741 19.4774 15.7986 19.0537 15.4862 18.7413C15.1739 18.4289 14.7502 18.2534 14.3084 18.2534C13.8666 18.2534 13.4429 18.4289 13.1305 18.7413C12.8181 19.0537 12.6426 19.4774 12.6426 19.9192V24.0837Z" stroke="#B45309" stroke-width="2" stroke-linecap="round" stroke-linejoin="round"/>
<path d="M14.3083 25.7493V27.4159" stroke="#B45309" stroke-width="2" stroke-linecap="round" stroke-linejoin="round"/>
<path d="M27.6346 25.7493V27.4159" stroke="#B45309" stroke-width="2" stroke-linecap="round" stroke-linejoin="round"/>
<path d="M20.9716 14.0889V21.5849" stroke="#B45309" stroke-width="2" stroke-linecap="round" stroke-linejoin="round"/>
</g>
<defs>
<clipPath id="clip0_46_4882">
<rect width="19.9894" height="19.9894" fill="white" transform="translate(10.9768 10.7573)"/>
</clipPath>
</defs>
</svg>
