<svg width="41" height="41" viewBox="0 0 41 41" fill="none" xmlns="http://www.w3.org/2000/svg">
<path d="M0.982056 20.7452C0.982056 9.70092 9.93517 0.747803 20.9794 0.747803V0.747803C32.0236 0.747803 40.9768 9.70092 40.9768 20.7452V20.7452C40.9768 31.7894 32.0236 40.7425 20.9794 40.7425V40.7425C9.93517 40.7425 0.982056 31.7894 0.982056 20.7452V20.7452Z" fill="#DCFCE7"/>
<g clip-path="url(#clip0_46_4893)">
<path d="M17.6403 29.0671C18.1006 29.0671 18.4737 28.694 18.4737 28.2337C18.4737 27.7735 18.1006 27.4004 17.6403 27.4004C17.1801 27.4004 16.807 27.7735 16.807 28.2337C16.807 28.694 17.1801 29.0671 17.6403 29.0671Z" stroke="#16A34A" stroke-width="2" stroke-linecap="round" stroke-linejoin="round"/>
<path d="M26.8022 29.0671C27.2624 29.0671 27.6355 28.694 27.6355 28.2337C27.6355 27.7735 27.2624 27.4004 26.8022 27.4004C26.342 27.4004 25.9689 27.7735 25.9689 28.2337C25.9689 28.694 26.342 29.0671 26.8022 29.0671Z" stroke="#16A34A" stroke-width="2" stroke-linecap="round" stroke-linejoin="round"/>
<path d="M12.6842 12.45H14.35L16.5655 22.7945C16.6468 23.1733 16.8576 23.512 17.1616 23.7522C17.4656 23.9924 17.8439 24.1191 18.2313 24.1104H26.3769C26.7561 24.1098 27.1236 23.9799 27.4189 23.7422C27.7142 23.5044 27.9196 23.173 28.0011 22.8028L29.3754 16.6144H15.2412" stroke="#16A34A" stroke-width="2" stroke-linecap="round" stroke-linejoin="round"/>
</g>
<defs>
<clipPath id="clip0_46_4893">
<rect width="19.9894" height="19.9894" fill="white" transform="translate(10.9768 10.7424)"/>
</clipPath>
</defs>
</svg>
