<svg width="41" height="41" viewBox="0 0 41 41" fill="none" xmlns="http://www.w3.org/2000/svg">
<path d="M0.982056 20.8492C0.982056 9.80493 9.93517 0.851807 20.9794 0.851807V0.851807C32.0236 0.851807 40.9768 9.80493 40.9768 20.8492V20.8492C40.9768 31.8934 32.0236 40.8465 20.9794 40.8465V40.8465C9.93517 40.8465 0.982056 31.8934 0.982056 20.8492V20.8492Z" fill="#F3E8FF"/>
<path d="M23.4701 28.3371V21.674C23.4701 21.4531 23.3824 21.2412 23.2262 21.085C23.07 20.9288 22.8581 20.8411 22.6372 20.8411H19.3057C19.0848 20.8411 18.8729 20.9288 18.7167 21.085C18.5605 21.2412 18.4728 21.4531 18.4728 21.674V28.3371" stroke="#A855F7" stroke-width="2" stroke-linecap="round" stroke-linejoin="round"/>
<path d="M13.4755 19.1754C13.4754 18.9331 13.5282 18.6937 13.6302 18.4739C13.7322 18.2541 13.8809 18.0592 14.066 17.9027L19.8962 12.9062C20.1969 12.6521 20.5778 12.5127 20.9715 12.5127C21.3652 12.5127 21.7461 12.6521 22.0468 12.9062L27.877 17.9027C28.0621 18.0592 28.2108 18.2541 28.3128 18.4739C28.4148 18.6937 28.4676 18.9331 28.4675 19.1754V26.6714C28.4675 27.1132 28.292 27.5369 27.9796 27.8493C27.6672 28.1617 27.2435 28.3372 26.8017 28.3372H15.1412C14.6995 28.3372 14.2758 28.1617 13.9634 27.8493C13.651 27.5369 13.4755 27.1132 13.4755 26.6714V19.1754Z" stroke="#A855F7" stroke-width="2" stroke-linecap="round" stroke-linejoin="round"/>
</svg>
