<svg width="41" height="41" viewBox="0 0 41 41" fill="none" xmlns="http://www.w3.org/2000/svg">
<path d="M0.982056 20.7305C0.982056 9.68627 9.93517 0.733154 20.9794 0.733154V0.733154C32.0236 0.733154 40.9768 9.68627 40.9768 20.7305V20.7305C40.9768 31.7747 32.0236 40.7279 20.9794 40.7279V40.7279C9.93517 40.7279 0.982056 31.7747 0.982056 20.7305V20.7305Z" fill="#DBEAFE"/>
<path d="M25.9689 14.8923C26.4107 14.8923 26.8344 15.0678 27.1468 15.3802C27.4592 15.6926 27.6347 16.1163 27.6347 16.5581V23.6594C27.6346 23.9187 27.695 24.1746 27.8112 24.4065L28.7008 26.178C28.765 26.3054 28.7954 26.4472 28.7891 26.5898C28.7827 26.7323 28.7399 26.8708 28.6647 26.9921C28.5894 27.1133 28.4843 27.2132 28.3593 27.2821C28.2344 27.351 28.0939 27.3867 27.9512 27.3857H13.9919C13.8492 27.3867 13.7087 27.351 13.5837 27.2821C13.4588 27.2132 13.3537 27.1133 13.2784 26.9921C13.2032 26.8708 13.1603 26.7323 13.154 26.5898C13.1477 26.4472 13.1781 26.3054 13.2423 26.178L14.1318 24.4065C14.2481 24.1746 14.3085 23.9187 14.3084 23.6594V16.5581C14.3084 16.1163 14.4839 15.6926 14.7963 15.3802C15.1087 15.0678 15.5324 14.8923 15.9742 14.8923H25.9689Z" stroke="#2563EB" stroke-width="2" stroke-linecap="round" stroke-linejoin="round"/>
<path d="M27.6797 24.0432H14.2634" stroke="#2563EB" stroke-width="2" stroke-linecap="round" stroke-linejoin="round"/>
</svg>
