<svg width="57" height="57" viewBox="0 0 57 57" fill="none" xmlns="http://www.w3.org/2000/svg">
<path d="M0.829407 28.316C0.829407 12.8532 13.3645 0.318115 28.8273 0.318115C44.2901 0.318115 56.8252 12.8532 56.8252 28.316C56.8252 43.7788 44.2901 56.3139 28.8273 56.3139C13.3645 56.3139 0.829407 43.7788 0.829407 28.316Z" fill="#DBEAFE"/>
<path d="M33.8246 22.4858C34.2664 22.4858 34.6901 22.6613 35.0025 22.9737C35.3149 23.2861 35.4904 23.7098 35.4904 24.1516V31.2529C35.4903 31.5122 35.5507 31.7681 35.667 32L36.5565 33.7715C36.6207 33.8989 36.6511 34.0407 36.6448 34.1833C36.6385 34.3258 36.5956 34.4644 36.5204 34.5856C36.4451 34.7068 36.34 34.8067 36.2151 34.8756C36.0901 34.9445 35.9496 34.9802 35.8069 34.9792H21.8476C21.7049 34.9802 21.5644 34.9445 21.4395 34.8756C21.3145 34.8067 21.2094 34.7068 21.1341 34.5856C21.0589 34.4644 21.0161 34.3258 21.0097 34.1833C21.0034 34.0407 21.0338 33.8989 21.098 33.7715L21.9875 32C22.1038 31.7681 22.1642 31.5122 22.1641 31.2529V24.1516C22.1641 23.7098 22.3396 23.2861 22.652 22.9737C22.9644 22.6613 23.3881 22.4858 23.8299 22.4858H33.8246Z" stroke="#2563EB" stroke-width="2" stroke-linecap="round" stroke-linejoin="round"/>
<path d="M35.5354 31.6367H22.1192" stroke="#2563EB" stroke-width="2" stroke-linecap="round" stroke-linejoin="round"/>
</svg>
