<svg width="41" height="41" viewBox="0 0 41 41" fill="none" xmlns="http://www.w3.org/2000/svg">
<path d="M0.982056 20.7007C0.982056 9.65649 9.93517 0.703369 20.9794 0.703369V0.703369C32.0236 0.703369 40.9768 9.65649 40.9768 20.7007V20.7007C40.9768 31.745 32.0236 40.6981 20.9794 40.6981V40.6981C9.93517 40.6981 0.982056 31.745 0.982056 20.7007V20.7007Z" fill="#F3F4F6"/>
<path d="M20.9715 25.69C23.7314 25.69 25.9688 23.4526 25.9688 20.6927C25.9688 17.9327 23.7314 15.6953 20.9715 15.6953C18.2115 15.6953 15.9741 17.9327 15.9741 20.6927C15.9741 23.4526 18.2115 25.69 20.9715 25.69Z" stroke="#4B5563" stroke-width="2" stroke-linecap="round" stroke-linejoin="round"/>
<path d="M20.9716 19.0269V20.6926L21.8049 21.5255" stroke="#4B5563" stroke-width="2" stroke-linecap="round" stroke-linejoin="round"/>
<path d="M24.4113 17.078L23.7367 13.7048C23.6605 13.3213 23.4519 12.9769 23.1474 12.7317C22.8428 12.4866 22.4618 12.3563 22.0709 12.3638H19.8388C19.4479 12.3563 19.0668 12.4866 18.7623 12.7317C18.4577 12.9769 18.2491 13.3213 18.173 13.7048L17.5233 17.078" stroke="#4B5563" stroke-width="2" stroke-linecap="round" stroke-linejoin="round"/>
<path d="M17.54 24.3241L18.2064 27.6557C18.2825 28.0391 18.4911 28.3836 18.7957 28.6287C19.1002 28.8739 19.4813 29.0041 19.8721 28.9966H22.1376C22.5285 29.0041 22.9095 28.8739 23.2141 28.6287C23.5186 28.3836 23.7272 28.0391 23.8034 27.6557L24.478 24.2825" stroke="#4B5563" stroke-width="2" stroke-linecap="round" stroke-linejoin="round"/>
</svg>
