<svg width="57" height="57" viewBox="0 0 57 57" fill="none" xmlns="http://www.w3.org/2000/svg">
<path d="M0.427979 28.3753C0.427979 12.9125 12.9631 0.377441 28.4259 0.377441V0.377441C43.8887 0.377441 56.4237 12.9125 56.4237 28.3753V28.3753C56.4237 43.8381 43.8887 56.3732 28.4259 56.3732V56.3732C12.9631 56.3732 0.427979 43.8381 0.427979 28.3753V28.3753Z" fill="#DCFCE7"/>
<path d="M35.4055 21.2624L31.7574 20.0464C31.7574 20.93 31.4064 21.7774 30.7816 22.4022C30.1568 23.027 29.3094 23.378 28.4258 23.378C27.5423 23.378 26.6949 23.027 26.0701 22.4022C25.4453 21.7774 25.0943 20.93 25.0943 20.0464L21.4462 21.2624C21.0692 21.388 20.7496 21.6442 20.5449 21.9848C20.3402 22.3254 20.2641 22.7279 20.3301 23.1198L20.8132 26.0099C20.8449 26.2055 20.9454 26.3835 21.0965 26.5117C21.2477 26.64 21.4396 26.7101 21.6378 26.7095H23.4285V35.0384C23.4285 35.9546 24.1781 36.7042 25.0943 36.7042H31.7574C32.1992 36.7042 32.6229 36.5287 32.9353 36.2163C33.2477 35.9039 33.4232 35.4802 33.4232 35.0384V26.7095H35.2139C35.4121 26.7101 35.604 26.64 35.7552 26.5117C35.9063 26.3835 36.0068 26.2055 36.0385 26.0099L36.5216 23.1198C36.5876 22.7279 36.5115 22.3254 36.3068 21.9848C36.1021 21.6442 35.7825 21.388 35.4055 21.2624Z" stroke="#22C55E" stroke-width="2" stroke-linecap="round" stroke-linejoin="round"/>
</svg>
