<svg width="57" height="57" viewBox="0 0 57 57" fill="none" xmlns="http://www.w3.org/2000/svg">
<path d="M0.427979 28.2865C0.427979 12.8237 12.9631 0.288574 28.4259 0.288574C43.8887 0.288574 56.4237 12.8237 56.4237 28.2865C56.4237 43.7493 43.8887 56.2843 28.4259 56.2843C12.9631 56.2843 0.427979 43.7493 0.427979 28.2865Z" fill="#E0E7FF"/>
<g clip-path="url(#clip0_46_4637)">
<path d="M32.5903 19.9575H24.2614C23.3414 19.9575 22.5956 20.7033 22.5956 21.6233V34.9496C22.5956 35.8696 23.3414 36.6154 24.2614 36.6154H32.5903C33.5103 36.6154 34.2561 35.8696 34.2561 34.9496V21.6233C34.2561 20.7033 33.5103 19.9575 32.5903 19.9575Z" stroke="#6366F1" stroke-width="2" stroke-linecap="round" stroke-linejoin="round"/>
<path d="M28.4258 33.2837H28.4342" stroke="#6366F1" stroke-width="2" stroke-linecap="round" stroke-linejoin="round"/>
</g>
<defs>
<clipPath id="clip0_46_4637">
<rect width="19.9894" height="19.9894" fill="white" transform="translate(18.4312 18.2917)"/>
</clipPath>
</defs>
</svg>
