<svg width="41" height="41" viewBox="0 0 41 41" fill="none" xmlns="http://www.w3.org/2000/svg">
<path d="M0.982056 20.6861C0.982056 9.64184 9.93517 0.688721 20.9794 0.688721V0.688721C32.0236 0.688721 40.9768 9.64184 40.9768 20.6861V20.6861C40.9768 31.7303 32.0236 40.6834 20.9794 40.6834V40.6834C9.93517 40.6834 0.982056 31.7303 0.982056 20.6861V20.6861Z" fill="#E0E7FF"/>
<g clip-path="url(#clip0_46_4926)">
<path d="M25.1359 12.3491H16.807C15.887 12.3491 15.1412 13.0949 15.1412 14.0149V27.3412C15.1412 28.2612 15.887 29.007 16.807 29.007H25.1359C26.0559 29.007 26.8017 28.2612 26.8017 27.3412V14.0149C26.8017 13.0949 26.0559 12.3491 25.1359 12.3491Z" stroke="#6366F1" stroke-width="2" stroke-linecap="round" stroke-linejoin="round"/>
<path d="M20.9716 25.6753H20.9799" stroke="#6366F1" stroke-width="2" stroke-linecap="round" stroke-linejoin="round"/>
</g>
<defs>
<clipPath id="clip0_46_4926">
<rect width="19.9894" height="19.9894" fill="white" transform="translate(10.9768 10.6833)"/>
</clipPath>
</defs>
</svg>
