<svg width="57" height="57" viewBox="0 0 57 57" fill="none" xmlns="http://www.w3.org/2000/svg">
<path d="M0.390991 28.9279C0.390991 13.4651 12.9261 0.930054 28.3889 0.930054V0.930054C43.8517 0.930054 56.3868 13.4651 56.3868 28.9279V28.9279C56.3868 44.3907 43.8517 56.9258 28.3889 56.9258V56.9258C12.9261 56.9258 0.390991 44.3907 0.390991 28.9279V28.9279Z" fill="#DBEAFE"/>
<g clip-path="url(#clip0_43_4300)">
<path d="M32.5533 20.599H24.2244C23.3044 20.599 22.5586 21.3448 22.5586 22.2648V35.5911C22.5586 36.511 23.3044 37.2568 24.2244 37.2568H32.5533C33.4733 37.2568 34.2191 36.511 34.2191 35.5911V22.2648C34.2191 21.3448 33.4733 20.599 32.5533 20.599Z" stroke="#3B82F6" stroke-width="2" stroke-linecap="round" stroke-linejoin="round"/>
<path d="M28.3889 33.9253H28.3972" stroke="#3B82F6" stroke-width="2" stroke-linecap="round" stroke-linejoin="round"/>
</g>
<defs>
<clipPath id="clip0_43_4300">
<rect width="19.9894" height="19.9894" fill="white" transform="translate(18.3942 18.9332)"/>
</clipPath>
</defs>
</svg>
