<svg width="57" height="57" viewBox="0 0 57 57" fill="none" xmlns="http://www.w3.org/2000/svg">
<path d="M0.215027 28.2865C0.215027 12.8237 12.7501 0.288574 28.2129 0.288574C43.6757 0.288574 56.2108 12.8237 56.2108 28.2865C56.2108 43.7493 43.6757 56.2843 28.2129 56.2843C12.7501 56.2843 0.215027 43.7493 0.215027 28.2865Z" fill="#FCE7F3"/>
<g clip-path="url(#clip0_46_4651)">
<path d="M26.4946 31.2015C26.4203 30.9133 26.27 30.6502 26.0596 30.4397C25.8491 30.2293 25.586 30.079 25.2978 30.0047L20.188 28.687C20.1008 28.6623 20.0241 28.6098 19.9694 28.5375C19.9148 28.4652 19.8853 28.377 19.8853 28.2864C19.8853 28.1958 19.9148 28.1076 19.9694 28.0353C20.0241 27.963 20.1008 27.9105 20.188 27.8858L25.2978 26.5673C25.5859 26.493 25.8489 26.3429 26.0594 26.1326C26.2699 25.9222 26.4202 25.6594 26.4946 25.3713L27.8123 20.2615C27.8368 20.174 27.8892 20.0969 27.9616 20.0419C28.034 19.987 28.1224 19.9573 28.2133 19.9573C28.3042 19.9573 28.3926 19.987 28.465 20.0419C28.5374 20.0969 28.5899 20.174 28.6144 20.2615L29.9312 25.3713C30.0055 25.6595 30.1558 25.9226 30.3662 26.1331C30.5767 26.3435 30.8398 26.4938 31.128 26.5681L36.2378 27.8849C36.3257 27.9092 36.4032 27.9616 36.4584 28.0341C36.5136 28.1066 36.5435 28.1953 36.5435 28.2864C36.5435 28.3776 36.5136 28.4662 36.4584 28.5387C36.4032 28.6112 36.3257 28.6636 36.2378 28.6879L31.128 30.0047C30.8398 30.079 30.5767 30.2293 30.3662 30.4397C30.1558 30.6502 30.0055 30.9133 29.9312 31.2015L28.6135 36.3113C28.589 36.3988 28.5366 36.4759 28.4642 36.5309C28.3918 36.5858 28.3034 36.6155 28.2125 36.6155C28.1216 36.6155 28.0332 36.5858 27.9608 36.5309C27.8884 36.4759 27.8359 36.3988 27.8114 36.3113L26.4946 31.2015Z" stroke="#F472B6" stroke-width="2" stroke-linecap="round" stroke-linejoin="round"/>
<path d="M34.876 20.7905V24.1221" stroke="#F472B6" stroke-width="2" stroke-linecap="round" stroke-linejoin="round"/>
<path d="M36.5418 22.4563H33.2103" stroke="#F472B6" stroke-width="2" stroke-linecap="round" stroke-linejoin="round"/>
<path d="M21.5498 32.4509V34.1176" stroke="#F472B6" stroke-width="2" stroke-linecap="round" stroke-linejoin="round"/>
<path d="M22.3836 33.2837H20.7169" stroke="#F472B6" stroke-width="2" stroke-linecap="round" stroke-linejoin="round"/>
</g>
<defs>
<clipPath id="clip0_46_4651">
<rect width="19.9894" height="19.9894" fill="white" transform="translate(18.2182 18.2917)"/>
</clipPath>
</defs>
</svg>
