<svg width="41" height="41" viewBox="0 0 41 41" fill="none" xmlns="http://www.w3.org/2000/svg">
<path d="M0.982056 20.6563C0.982056 9.61205 9.93517 0.658936 20.9794 0.658936V0.658936C32.0236 0.658936 40.9768 9.61205 40.9768 20.6563V20.6563C40.9768 31.7005 32.0236 40.6536 20.9794 40.6536V40.6536C9.93517 40.6536 0.982056 31.7005 0.982056 20.6563V20.6563Z" fill="#FCE7F3"/>
<g clip-path="url(#clip0_46_4940)">
<path d="M19.2533 23.5633C19.179 23.2751 19.0287 23.0121 18.8182 22.8016C18.6077 22.5911 18.3447 22.4408 18.0564 22.3665L12.9467 21.0488C12.8595 21.0241 12.7828 20.9716 12.7281 20.8993C12.6735 20.827 12.6439 20.7388 12.6439 20.6482C12.6439 20.5576 12.6735 20.4694 12.7281 20.3971C12.7828 20.3248 12.8595 20.2723 12.9467 20.2476L18.0564 18.9291C18.3446 18.8548 18.6076 18.7047 18.818 18.4944C19.0285 18.2841 19.1788 18.0212 19.2533 17.7331L20.5709 12.6233C20.5954 12.5358 20.6479 12.4587 20.7203 12.4038C20.7927 12.3488 20.8811 12.3191 20.972 12.3191C21.0629 12.3191 21.1513 12.3488 21.2237 12.4038C21.2961 12.4587 21.3485 12.5358 21.373 12.6233L22.6898 17.7331C22.7642 18.0213 22.9144 18.2844 23.1249 18.4949C23.3354 18.7054 23.5985 18.8556 23.8867 18.93L28.9965 20.2468C29.0844 20.271 29.1618 20.3234 29.2171 20.3959C29.2723 20.4684 29.3022 20.5571 29.3022 20.6482C29.3022 20.7394 29.2723 20.828 29.2171 20.9005C29.1618 20.973 29.0844 21.0254 28.9965 21.0497L23.8867 22.3665C23.5985 22.4408 23.3354 22.5911 23.1249 22.8016C22.9144 23.0121 22.7642 23.2751 22.6898 23.5633L21.3722 28.6731C21.3477 28.7607 21.2952 28.8378 21.2228 28.8927C21.1504 28.9476 21.062 28.9773 20.9712 28.9773C20.8803 28.9773 20.7919 28.9476 20.7195 28.8927C20.6471 28.8378 20.5946 28.7607 20.5701 28.6731L19.2533 23.5633Z" stroke="#F472B6" stroke-width="2" stroke-linecap="round" stroke-linejoin="round"/>
<path d="M27.6346 13.1523V16.4839" stroke="#F472B6" stroke-width="2" stroke-linecap="round" stroke-linejoin="round"/>
<path d="M29.3004 14.8181H25.9689" stroke="#F472B6" stroke-width="2" stroke-linecap="round" stroke-linejoin="round"/>
<path d="M14.3083 24.8127V26.4794" stroke="#F472B6" stroke-width="2" stroke-linecap="round" stroke-linejoin="round"/>
<path d="M15.1421 25.6455H13.4755" stroke="#F472B6" stroke-width="2" stroke-linecap="round" stroke-linejoin="round"/>
</g>
<defs>
<clipPath id="clip0_46_4940">
<rect width="19.9894" height="19.9894" fill="white" transform="translate(10.9768 10.6536)"/>
</clipPath>
</defs>
</svg>
