<svg width="57" height="57" viewBox="0 0 57 57" fill="none" xmlns="http://www.w3.org/2000/svg">
<path d="M0.215027 28.3753C0.215027 12.9125 12.7501 0.377441 28.2129 0.377441V0.377441C43.6757 0.377441 56.2108 12.9125 56.2108 28.3753V28.3753C56.2108 43.8381 43.6757 56.3732 28.2129 56.3732V56.3732C12.7501 56.3732 0.215027 43.8381 0.215027 28.3753V28.3753Z" fill="#FFEDD5"/>
<path d="M31.5445 26.7095C31.5445 27.5931 31.1935 28.4405 30.5687 29.0652C29.9439 29.69 29.0965 30.041 28.2129 30.041C27.3293 30.041 26.4819 29.69 25.8571 29.0652C25.2324 28.4405 24.8813 27.5931 24.8813 26.7095" stroke="#F97316" stroke-width="2" stroke-linecap="round" stroke-linejoin="round"/>
<path d="M20.8027 23.4062H35.6232" stroke="#F97316" stroke-width="2" stroke-linecap="round" stroke-linejoin="round"/>
<path d="M21.05 22.934C20.8338 23.2224 20.7169 23.5731 20.7169 23.9335V35.0384C20.7169 35.4802 20.8924 35.9039 21.2048 36.2163C21.5172 36.5287 21.9409 36.7042 22.3827 36.7042H34.0432C34.485 36.7042 34.9087 36.5287 35.221 36.2163C35.5334 35.9039 35.7089 35.4802 35.7089 35.0384V23.9335C35.7089 23.5731 35.592 23.2224 35.3758 22.934L33.71 20.7127C33.5548 20.5058 33.3536 20.3379 33.1223 20.2222C32.891 20.1066 32.636 20.0464 32.3774 20.0464H24.0485C23.7899 20.0464 23.5348 20.1066 23.3035 20.2222C23.0722 20.3379 22.871 20.5058 22.7158 20.7127L21.05 22.934Z" stroke="#F97316" stroke-width="2" stroke-linecap="round" stroke-linejoin="round"/>
</svg>
