<svg width="41" height="41" viewBox="0 0 41 41" fill="none" xmlns="http://www.w3.org/2000/svg">
<path d="M0.982056 20.6416C0.982056 9.59741 9.93517 0.644287 20.9794 0.644287V0.644287C32.0236 0.644287 40.9768 9.59741 40.9768 20.6416V20.6416C40.9768 31.6859 32.0236 40.639 20.9794 40.639V40.639C9.93517 40.639 0.982056 31.6859 0.982056 20.6416V20.6416Z" fill="#FEF9C3"/>
<g clip-path="url(#clip0_46_4951)">
<path d="M20.9715 23.9651C22.8114 23.9651 24.303 22.4735 24.303 20.6336C24.303 18.7936 22.8114 17.302 20.9715 17.302C19.1315 17.302 17.6399 18.7936 17.6399 20.6336C17.6399 22.4735 19.1315 23.9651 20.9715 23.9651Z" stroke="#CA8A04" stroke-width="2" stroke-linecap="round" stroke-linejoin="round"/>
<path d="M20.9716 12.3047V13.9714" stroke="#CA8A04" stroke-width="2" stroke-linecap="round" stroke-linejoin="round"/>
<path d="M20.9716 27.2969V28.9635" stroke="#CA8A04" stroke-width="2" stroke-linecap="round" stroke-linejoin="round"/>
<path d="M15.083 14.7451L16.258 15.9201" stroke="#CA8A04" stroke-width="2" stroke-linecap="round" stroke-linejoin="round"/>
<path d="M25.6857 25.3479L26.8607 26.5229" stroke="#CA8A04" stroke-width="2" stroke-linecap="round" stroke-linejoin="round"/>
<path d="M12.6426 20.6335H14.3092" stroke="#CA8A04" stroke-width="2" stroke-linecap="round" stroke-linejoin="round"/>
<path d="M27.6346 20.6335H29.3013" stroke="#CA8A04" stroke-width="2" stroke-linecap="round" stroke-linejoin="round"/>
<path d="M16.258 25.3479L15.083 26.5229" stroke="#CA8A04" stroke-width="2" stroke-linecap="round" stroke-linejoin="round"/>
<path d="M26.8607 14.7451L25.6857 15.9201" stroke="#CA8A04" stroke-width="2" stroke-linecap="round" stroke-linejoin="round"/>
</g>
<defs>
<clipPath id="clip0_46_4951">
<rect width="19.9894" height="19.9894" fill="white" transform="translate(10.9768 10.6389)"/>
</clipPath>
</defs>
</svg>
