<?xml version="1.0" encoding="utf-8"?><!-- Uploaded to: SVG Repo, www.svgrepo.com, Generator: SVG Repo Mixer Tools -->
<svg width="800px" height="800px" viewBox="0 -2 70 70" xmlns="http://www.w3.org/2000/svg"><title>Fashion</title><path d="M42.72,41.15c0,0.18,0,.35,0,0.52,0,0.36,0,.72.06,1.07H33.25c0-.35.05-0.71,0.06-1.07,0-.17,0-0.34,0-0.52a28.24,28.24,0,0,0-.13-3.39h9.34l0.32,0A27.72,27.72,0,0,0,42.72,41.15Z" fill="#fcf286"/><path d="M55.2,31.58c-8.19,0-12.44,3.23-12.48,9.57a27.72,27.72,0,0,1,.13-3.36c0.56-5.67,3.24-11.25,12.36-11.23,3.14,0,5.66,0,7.67.11a14.15,14.15,0,0,1,5,.87c2.89,1.35,2.19,4.56.49,12.3l-0.73,3.43a10.16,10.16,0,0,0,.06-1.6C67.36,32.9,62.68,31.61,55.2,31.58Z" fill="#fcf286"/><path d="M20.84,31.58c-7.48,0-12.16,1.31-12.47,10.09a11.7,11.7,0,0,0,0,1.22L7.7,39.84C6.07,32.4,5.36,29.13,7.88,27.7c1.12-.64,2.87-0.91,5.47-1,2-.08,4.44-0.1,7.49-0.1,9.09,0,11.78,5.53,12.35,11.19H32.81C31.45,33.66,27.42,31.56,20.84,31.58Z" fill="#fcf286"/><path d="M67.61,43.27C67,48.42,62.83,53.16,55.2,53.16c-9.05,0-11.93-5.07-12.4-10.42,0-.35-0.05-0.71-0.06-1.07,0-.17,0-0.34,0-0.52,0-6.34,4.28-9.59,12.48-9.57,7.48,0,12.16,1.31,12.48,10.09A10.16,10.16,0,0,1,67.61,43.27Z" fill="#46bcb6"/><path d="M33.25,42.74c-0.47,5.35-3.34,10.42-12.4,10.42-7.82,0-12-5-12.44-10.27a11.7,11.7,0,0,1,0-1.22c0.31-8.78,5-10.06,12.47-10.09,6.57,0,10.61,2.08,12,6.18a10.91,10.91,0,0,1,.51,3.39c0,0.18,0,.35,0,0.52C33.3,42,33.28,42.4,33.25,42.74Z" fill="#46bcb6"/><path d="M28.26,41.67c0,0.36,0,.72-0.06,1.07-0.47,5.35-3.34,10.42-12.4,10.42-7.82,0-12-5-12.44-10.27a11.7,11.7,0,0,1,0-1.22c0.31-8.78,5-10.06,12.47-10.09,6.57,0,10.61,2.08,12,6.18a10.91,10.91,0,0,1,.51,3.39" fill="none" stroke="#752323" stroke-linejoin="round" stroke-width="2"/><path d="M28.26,41.67c0-.17,0-0.34,0-0.52a28.24,28.24,0,0,0-.13-3.39c-0.57-5.66-3.25-11.21-12.35-11.19-3.05,0-5.52,0-7.49.1-2.6.13-4.35,0.4-5.47,1C0.31,29.13,1,32.4,2.65,39.84l0.7,3.05" fill="none" stroke="#752323" stroke-linejoin="round" stroke-width="2"/><path d="M37.68,41.67c0,0.36,0,.72.06,1.07,0.48,5.35,3.35,10.42,12.4,10.42,7.63,0,11.85-4.75,12.41-9.89a10.16,10.16,0,0,0,.06-1.6c-0.32-8.78-5-10.06-12.48-10.09-8.19,0-12.44,3.23-12.48,9.57" fill="none" stroke="#752323" stroke-linejoin="round" stroke-width="2"/><path d="M37.68,41.67c0-.17,0-0.34,0-0.52a27.72,27.72,0,0,1,.13-3.36C38.36,32.12,41,26.55,50.16,26.57c3.14,0,5.66,0,7.67.11a14.15,14.15,0,0,1,5,.87c2.89,1.35,2.19,4.56.49,12.3l-0.73,3.43,0,0.16" fill="none" stroke="#752323" stroke-linejoin="round" stroke-width="2"/><polyline points="37.48 42.74 28.2 42.74 27.51 42.74" fill="none" stroke="#752323" stroke-linejoin="round" stroke-width="2"/><polyline points="27.51 37.76 27.76 37.76 28.14 37.76 37.48 37.76" fill="none" stroke="#752323" stroke-linejoin="round" stroke-width="2"/></svg>