<svg width="41" height="41" viewBox="0 0 41 41" fill="none" xmlns="http://www.w3.org/2000/svg">
<path d="M0.982056 20.6265C0.982056 9.58227 9.93517 0.62915 20.9794 0.62915V0.62915C32.0236 0.62915 40.9768 9.58227 40.9768 20.6265V20.6265C40.9768 31.6707 32.0236 40.6239 20.9794 40.6239V40.6239C9.93517 40.6239 0.982056 31.6707 0.982056 20.6265V20.6265Z" fill="#F1F5F9"/>
<path d="M25.9688 12.2896H15.9741C15.0541 12.2896 14.3083 13.0353 14.3083 13.9553V27.2816C14.3083 28.2016 15.0541 28.9474 15.9741 28.9474H25.9688C26.8888 28.9474 27.6346 28.2016 27.6346 27.2816V13.9553C27.6346 13.0353 26.8888 12.2896 25.9688 12.2896Z" stroke="#475569" stroke-width="2" stroke-linecap="round" stroke-linejoin="round"/>
<path d="M20.9716 25.6157H20.9799" stroke="#475569" stroke-width="2" stroke-linecap="round" stroke-linejoin="round"/>
</svg>
