<svg width="41" height="41" viewBox="0 0 41 41" fill="none" xmlns="http://www.w3.org/2000/svg">
<path d="M0.982056 20.6119C0.982056 9.56762 9.93517 0.614502 20.9794 0.614502V0.614502C32.0236 0.614502 40.9768 9.56762 40.9768 20.6119V20.6119C40.9768 31.6561 32.0236 40.6092 20.9794 40.6092V40.6092C9.93517 40.6092 0.982056 31.6561 0.982056 20.6119V20.6119Z" fill="#FFE4E6"/>
<g clip-path="url(#clip0_46_4974)">
<path d="M27.9512 13.4909L24.3031 12.2749C24.3031 13.1585 23.9521 14.0059 23.3273 14.6307C22.7025 15.2555 21.8551 15.6065 20.9716 15.6065C20.088 15.6065 19.2406 15.2555 18.6158 14.6307C17.991 14.0059 17.64 13.1585 17.64 12.2749L13.9919 13.4909C13.6149 13.6165 13.2953 13.8727 13.0906 14.2133C12.886 14.5539 12.8098 14.9565 12.8759 15.3483L13.3589 18.2384C13.3906 18.4341 13.4911 18.612 13.6422 18.7402C13.7934 18.8685 13.9853 18.9386 14.1835 18.938H15.9742V27.267C15.9742 28.1831 16.7238 28.9327 17.64 28.9327H24.3031C24.7449 28.9327 25.1686 28.7572 25.481 28.4448C25.7934 28.1324 25.9689 27.7088 25.9689 27.267V18.938H27.7596C27.9578 18.9386 28.1498 18.8685 28.3009 18.7402C28.452 18.612 28.5525 18.4341 28.5842 18.2384L29.0673 15.3483C29.1333 14.9565 29.0572 14.5539 28.8525 14.2133C28.6478 13.8727 28.3282 13.6165 27.9512 13.4909Z" stroke="#F43F5E" stroke-width="2" stroke-linecap="round" stroke-linejoin="round"/>
</g>
<defs>
<clipPath id="clip0_46_4974">
<rect width="19.9894" height="19.9894" fill="white" transform="translate(10.9768 10.6091)"/>
</clipPath>
</defs>
</svg>
