<?xml version="1.0" encoding="iso-8859-1"?>
<!-- Uploaded to: SVG Repo, www.svgrepo.com, Generator: SVG Repo Mixer Tools -->
<svg height="800px" width="800px" version="1.1" id="Layer_1" xmlns="http://www.w3.org/2000/svg" xmlns:xlink="http://www.w3.org/1999/xlink" 
	 viewBox="0 0 512.427 512.427" xml:space="preserve">
<g transform="translate(1)">
	<path style="fill:#FFE100;" d="M451.48,256.427C434.413,213.76,391.747,34.56,391.747,34.56L349.08,8.96v119.467
		c0,47.787-17.92,78.507-37.547,97.28c-31.573,29.867-81.067,29.867-112.64,0c-19.627-18.773-37.547-49.493-37.547-97.28V8.96
		l-42.667,25.6c0,0-42.667,179.2-59.733,221.867c-16.213,39.253-7.68,74.24,8.533,102.4c15.36,26.453,34.133,68.267,34.133,145.067
		h153.6h153.6c0-76.8,18.773-118.613,34.133-145.067C459.16,330.667,466.84,295.68,451.48,256.427"/>
	<path style="fill:#FFA800;" d="M451.48,256.427C434.413,213.76,391.747,34.56,391.747,34.56L349.08,8.96v15.36l17.067,10.24
		c0,0,42.667,179.2,59.733,221.867c15.36,39.253,7.68,74.24-8.533,102.4c-15.36,26.453-34.133,68.267-34.133,145.067h25.6
		c0-76.8,18.773-118.613,34.133-145.067C459.16,330.667,466.84,295.68,451.48,256.427"/>
	<path style="fill:#FFFFFF;" d="M58.947,256.427C76.013,213.76,118.68,34.56,118.68,34.56l42.667-25.6v15.36L144.28,34.56
		c0,0-42.667,179.2-59.733,221.867c-15.36,39.253-7.68,74.24,8.533,102.4c15.36,26.453,34.133,68.267,34.133,145.067h-25.6
		c0-76.8-18.773-118.613-34.133-145.067C51.267,330.667,42.733,295.68,58.947,256.427"/>
	<path style="fill:#FDCC00;" d="M255.213,85.76c-85.333,0-93.867-76.8-93.867-76.8v88.747c56.32,51.2,63.147,109.227,62.293,144.213
		c10.24,4.267,20.48,5.973,31.573,5.973c11.093,0,21.333-2.56,31.573-5.973c-0.853-35.84,5.973-93.013,62.293-144.213V8.96
		C349.08,8.96,340.547,85.76,255.213,85.76"/>
	<path d="M408.813,512.427h-307.2c-5.12,0-8.533-3.413-8.533-8.533c0-75.947-18.773-116.907-33.28-140.8
		c-14.507-24.747-28.16-64-9.387-110.08c17.067-40.96,59.733-218.453,59.733-220.16c0.853-2.56,1.707-4.267,4.267-5.12l42.667-25.6
		c2.56-1.707,5.973-1.707,8.533,0c2.56,0.853,4.267,3.413,4.267,6.827v119.467c0,38.4,11.947,69.12,34.987,91.307
		c13.653,12.8,31.573,19.627,50.347,19.627s36.693-6.827,50.347-19.627c23.04-22.187,34.987-52.907,34.987-91.307V8.96
		c0-3.413,1.707-5.973,4.267-7.68s5.973-1.707,8.533,0l42.667,25.6c1.707,0.853,3.413,3.413,4.267,5.12
		c0,1.707,42.667,179.2,59.733,221.013c18.773,46.08,5.12,85.333-9.387,110.08c-14.507,23.893-33.28,64.853-33.28,140.8
		C417.347,508.16,413.933,512.427,408.813,512.427z M110.147,495.36H400.28c1.707-74.24,20.48-116.053,34.987-140.8
		c12.8-21.333,24.747-55.467,8.533-94.72c-16.213-40.107-52.907-193.707-58.88-219.307L357.613,24.32v104.107
		c0,43.52-13.653,78.507-40.107,104.107c-17.067,16.213-38.4,24.747-62.293,24.747c-23.04,0-45.227-8.533-62.293-24.747
		c-26.453-25.6-40.107-60.587-40.107-104.107V24.32L126.36,39.68c-5.973,25.6-43.52,180.053-58.88,219.307
		c-17.067,40.107-5.12,74.24,7.68,95.573C89.667,379.307,108.44,421.12,110.147,495.36z"/>
	<path d="M255.213,257.28c-11.947,0-23.893-2.56-34.987-6.827c-3.413-1.707-5.12-4.267-5.12-8.533
		c1.707-54.613-17.92-100.693-59.733-138.24c-1.707-1.707-2.56-4.267-2.56-5.973V8.96c0-4.267,3.413-8.533,7.68-8.533
		s8.533,3.413,8.533,7.68c0.853,2.56,9.387,69.12,86.187,69.12s85.333-66.56,85.333-69.12c0.853-4.267,4.267-7.68,9.387-7.68
		c4.267,0,7.68,4.267,7.68,8.533v88.747c0,2.56-0.853,5.12-2.56,5.973c-40.96,37.547-61.44,83.627-59.733,138.24
		c0,3.413-1.707,6.827-5.12,8.533C279.107,254.72,267.16,257.28,255.213,257.28z M232.173,235.947c15.36,5.12,31.573,5.12,46.08,0
		c0-55.467,20.48-103.253,62.293-142.507V52.48c-14.507,21.333-39.253,41.813-85.333,41.813s-70.827-20.48-85.333-41.813v40.96
		C211.693,132.693,232.173,180.48,232.173,235.947z"/>
</g>
</svg>