<svg width="41" height="41" viewBox="0 0 41 41" fill="none" xmlns="http://www.w3.org/2000/svg">
<path d="M0.982056 20.7898C0.982056 9.7456 9.93517 0.79248 20.9794 0.79248V0.79248C32.0236 0.79248 40.9768 9.7456 40.9768 20.7898V20.7898C40.9768 31.8341 32.0236 40.7872 20.9794 40.7872V40.7872C9.93517 40.7872 0.982056 31.8341 0.982056 20.7898V20.7898Z" fill="#FEE2E2"/>
<g clip-path="url(#clip0_46_4861)">
<path d="M20.1386 28.8858C20.3918 29.032 20.6791 29.109 20.9715 29.109C21.2639 29.109 21.5512 29.032 21.8044 28.8858L27.6346 25.5543C27.8876 25.4082 28.0977 25.1982 28.2439 24.9453C28.3901 24.6924 28.4672 24.4055 28.4675 24.1134V17.4502C28.4672 17.1581 28.3901 16.8712 28.2439 16.6183C28.0977 16.3654 27.8876 16.1554 27.6346 16.0093L21.8044 12.6778C21.5512 12.5316 21.2639 12.4546 20.9715 12.4546C20.6791 12.4546 20.3918 12.5316 20.1386 12.6778L14.3084 16.0093C14.0554 16.1554 13.8453 16.3654 13.6991 16.6183C13.5529 16.8712 13.4758 17.1581 13.4755 17.4502V24.1134C13.4758 24.4055 13.5529 24.6924 13.6991 24.9453C13.8453 25.1982 14.0554 25.4082 14.3084 25.5543L20.1386 28.8858Z" stroke="#EF4444" stroke-width="2" stroke-linecap="round" stroke-linejoin="round"/>
<path d="M20.9716 29.1107V20.7817" stroke="#EF4444" stroke-width="2" stroke-linecap="round" stroke-linejoin="round"/>
<path d="M13.717 16.6174L20.9715 20.7819L28.226 16.6174" stroke="#EF4444" stroke-width="2" stroke-linecap="round" stroke-linejoin="round"/>
<path d="M17.2235 14.3435L24.7195 18.6329" stroke="#EF4444" stroke-width="2" stroke-linecap="round" stroke-linejoin="round"/>
</g>
<defs>
<clipPath id="clip0_46_4861">
<rect width="19.9894" height="19.9894" fill="white" transform="translate(10.9768 10.7871)"/>
</clipPath>
</defs>
</svg>
