<svg width="57" height="57" viewBox="0 0 57 57" fill="none" xmlns="http://www.w3.org/2000/svg">
<path d="M0.215027 28.2576C0.215027 12.7948 12.7501 0.259766 28.2129 0.259766C43.6757 0.259766 56.2108 12.7948 56.2108 28.2576C56.2108 43.7204 43.6757 56.2555 28.2129 56.2555C12.7501 56.2555 0.215027 43.7204 0.215027 28.2576Z" fill="#E0F2FE"/>
<g clip-path="url(#clip0_46_4692)">
<path d="M34.0431 32.4222H35.7089C36.2087 32.4222 36.5418 32.089 36.5418 31.5893V29.0906C36.5418 28.341 35.9588 27.6747 35.2925 27.5081C33.7933 27.0917 31.5445 26.5919 31.5445 26.5919C31.5445 26.5919 30.4617 25.4259 29.7121 24.6763C29.2957 24.3431 28.7959 24.0933 28.2129 24.0933H22.3826C21.8829 24.0933 21.4665 24.4264 21.2166 24.8429L20.0506 27.2583C19.9403 27.5799 19.884 27.9177 19.884 28.2577V31.5893C19.884 32.089 20.2171 32.4222 20.7169 32.4222H22.3826" stroke="#0EA5E9" stroke-width="2" stroke-linecap="round" stroke-linejoin="round"/>
<path d="M24.0484 34.0879C24.9684 34.0879 25.7142 33.3421 25.7142 32.4221C25.7142 31.5021 24.9684 30.7563 24.0484 30.7563C23.1285 30.7563 22.3827 31.5021 22.3827 32.4221C22.3827 33.3421 23.1285 34.0879 24.0484 34.0879Z" stroke="#0EA5E9" stroke-width="2" stroke-linecap="round" stroke-linejoin="round"/>
<path d="M25.7142 32.4221H30.7116" stroke="#0EA5E9" stroke-width="2" stroke-linecap="round" stroke-linejoin="round"/>
<path d="M32.3774 34.0879C33.2973 34.0879 34.0431 33.3421 34.0431 32.4221C34.0431 31.5021 33.2973 30.7563 32.3774 30.7563C31.4574 30.7563 30.7116 31.5021 30.7116 32.4221C30.7116 33.3421 31.4574 34.0879 32.3774 34.0879Z" stroke="#0EA5E9" stroke-width="2" stroke-linecap="round" stroke-linejoin="round"/>
</g>
<defs>
<clipPath id="clip0_46_4692">
<rect width="19.9894" height="19.9894" fill="white" transform="translate(18.2182 18.2629)"/>
</clipPath>
</defs>
</svg>
