<svg width="41" height="41" viewBox="0 0 41 41" fill="none" xmlns="http://www.w3.org/2000/svg">
<path d="M0.982056 20.5674C0.982056 9.52319 9.93517 0.570068 20.9794 0.570068V0.570068C32.0236 0.570068 40.9768 9.52319 40.9768 20.5674V20.5674C40.9768 31.6117 32.0236 40.5648 20.9794 40.5648V40.5648C9.93517 40.5648 0.982056 31.6117 0.982056 20.5674V20.5674Z" fill="#EDE9FE"/>
<g clip-path="url(#clip0_46_4997)">
<path d="M27.9512 13.4465L24.3031 12.2305C24.3031 13.1141 23.9521 13.9615 23.3273 14.5862C22.7025 15.211 21.8551 15.562 20.9716 15.562C20.088 15.562 19.2406 15.211 18.6158 14.5862C17.991 13.9615 17.64 13.1141 17.64 12.2305L13.9919 13.4465C13.6149 13.5721 13.2953 13.8283 13.0906 14.1689C12.886 14.5095 12.8098 14.912 12.8759 15.3038L13.3589 18.194C13.3906 18.3896 13.4911 18.5676 13.6422 18.6958C13.7934 18.824 13.9853 18.8942 14.1835 18.8936H15.9742V27.2225C15.9742 28.1387 16.7238 28.8883 17.64 28.8883H24.3031C24.7449 28.8883 25.1686 28.7128 25.481 28.4004C25.7934 28.088 25.9689 27.6643 25.9689 27.2225V18.8936H27.7596C27.9578 18.8942 28.1498 18.824 28.3009 18.6958C28.452 18.5676 28.5525 18.3896 28.5842 18.194L29.0673 15.3038C29.1333 14.912 29.0572 14.5095 28.8525 14.1689C28.6478 13.8283 28.3282 13.5721 27.9512 13.4465Z" stroke="#8B5CF6" stroke-width="2" stroke-linecap="round" stroke-linejoin="round"/>
</g>
<defs>
<clipPath id="clip0_46_4997">
<rect width="19.9894" height="19.9894" fill="white" transform="translate(10.9768 10.5647)"/>
</clipPath>
</defs>
</svg>
