<svg width="41" height="41" viewBox="0 0 41 41" fill="none" xmlns="http://www.w3.org/2000/svg">
<path d="M0.982056 20.5227C0.982056 9.47851 9.93517 0.525391 20.9794 0.525391V0.525391C32.0236 0.525391 40.9768 9.47851 40.9768 20.5227V20.5227C40.9768 31.567 32.0236 40.5201 20.9794 40.5201V40.5201C9.93517 40.5201 0.982056 31.567 0.982056 20.5227V20.5227Z" fill="#CFFAFE"/>
<path d="M20.9715 25.5123C23.7314 25.5123 25.9688 23.2749 25.9688 20.5149C25.9688 17.755 23.7314 15.5176 20.9715 15.5176C18.2115 15.5176 15.9741 17.755 15.9741 20.5149C15.9741 23.2749 18.2115 25.5123 20.9715 25.5123Z" stroke="#06B6D4" stroke-width="2" stroke-linecap="round" stroke-linejoin="round"/>
<path d="M20.9716 18.8491V20.5149L21.8049 21.3478" stroke="#06B6D4" stroke-width="2" stroke-linecap="round" stroke-linejoin="round"/>
<path d="M24.4113 16.9L23.7367 13.5268C23.6605 13.1433 23.4519 12.7989 23.1474 12.5537C22.8428 12.3086 22.4618 12.1784 22.0709 12.1859H19.8388C19.4479 12.1784 19.0668 12.3086 18.7623 12.5537C18.4577 12.7989 18.2491 13.1433 18.173 13.5268L17.5233 16.9" stroke="#06B6D4" stroke-width="2" stroke-linecap="round" stroke-linejoin="round"/>
<path d="M17.54 24.1461L18.2064 27.4777C18.2825 27.8612 18.4911 28.2056 18.7957 28.4508C19.1002 28.6959 19.4813 28.8262 19.8721 28.8187H22.1376C22.5285 28.8262 22.9095 28.6959 23.2141 28.4508C23.5186 28.2056 23.7272 27.8612 23.8034 27.4777L24.478 24.1045" stroke="#06B6D4" stroke-width="2" stroke-linecap="round" stroke-linejoin="round"/>
</svg>
