<?xml version="1.0" encoding="iso-8859-1"?>
<!-- Uploaded to: SVG Repo, www.svgrepo.com, Generator: SVG Repo Mixer Tools -->
<svg height="800px" width="800px" version="1.1" id="Layer_1" xmlns="http://www.w3.org/2000/svg" xmlns:xlink="http://www.w3.org/1999/xlink" 
	 viewBox="0 0 503.739 503.739" xml:space="preserve">
<g transform="translate(1 1)">
	<g>
		<path style="fill:#FFE100;" d="M15.684,166.411c-9.233,20.984-15.948,85.613,8.393,117.508v33.574
			c0,0,19.305,16.787,50.361,16.787c50.361,0,124.223-8.393,159.475-8.393c34.413,0,110.793,20.984,184.656-3.357
			c5.875-1.679,12.59-4.197,18.466-5.875c13.43-3.357,37.771-10.072,47.003-15.108c12.59-6.715,23.502-47.003-37.77-63.79
			c-61.272-15.948-103.239-37.77-103.239-37.77l-16.787,33.574C326.241,233.558,65.205,194.109,15.684,166.411"/>
		<path style="fill:#FFE100;" d="M419.408,288.955c5.875-1.679,11.751-4.197,18.466-5.036c13.429-3.357,37.77-10.072,47.003-15.108
			c0,0,2.518-0.839,5.036-2.518c-5.875-10.072-19.305-20.984-43.646-27.698c-61.272-16.787-103.239-38.61-103.239-38.61
			l-16.787,33.574c-6.715,15.948-8.393,45.325-8.393,66.308C348.904,301.545,384.156,300.706,419.408,288.955"/>
	</g>
	<path style="fill:#00DA6C;" d="M290.989,227.683c-20.984-3.357-50.361-8.393-82.256-14.269c0,0.839,0,1.679,0,2.518
		c0,23.502,18.466,41.967,41.967,41.967C270.005,258.738,285.953,245.309,290.989,227.683"/>
	<path style="fill:#FDCC00;" d="M24.077,317.493c0,0,19.305,16.787,50.361,16.787c50.361,0,124.223-8.393,159.475-8.393
		c34.413,0,110.793,20.984,185.495-3.357c5.875-1.679,11.751-4.197,17.626-5.036c13.43-3.357,38.61-10.072,47.843-15.108
		c7.554-4.197,14.269-20.144,5.036-36.092c-3.357,1.679-5.036,2.518-5.036,2.518c-9.233,5.036-34.413,11.751-47.843,15.108
		c-5.875,1.679-11.751,3.357-17.626,5.036c-74.702,24.341-151.082,3.357-185.495,3.357c-35.252,0-109.115,8.393-159.475,8.393
		c-31.056,0-50.361-16.787-50.361-16.787V317.493z"/>
	<g>
		<path style="fill:#00DA6C;" d="M8.13,233.558c22.662,0,41.128-19.305,41.128-41.967c0-4.197-0.839-9.233-2.518-13.43
			c-13.43-4.197-24.341-7.554-31.056-11.751C10.648,179.001,5.612,206.699,8.13,233.558"/>
		<path style="fill:#00DA6C;" d="M446.267,238.594c-31.895-8.393-58.754-18.466-77.22-26.859c0,1.679-0.839,3.357-0.839,5.036
			c0,23.502,18.466,41.967,41.967,41.967C425.284,258.738,438.713,250.345,446.267,238.594"/>
		<path style="fill:#00DA6C;" d="M166.766,295.67c0-0.839,0-2.518,0-3.357c0-23.502-18.466-41.967-41.967-41.967
			s-41.967,18.466-41.967,41.967c0,2.518,0,5.875,0.839,8.393C109.69,299.866,139.067,298.188,166.766,295.67"/>
	</g>
	<g>
		<path style="fill:#FFFFFF;" d="M49.258,317.493v-33.574c-20.984-28.538-18.466-81.416-10.911-108.275
			c-10.072-3.357-17.626-6.715-22.662-9.233c-9.233,20.984-15.948,85.613,8.393,117.508v33.574c0,0,19.305,16.787,50.361,16.787
			c5.875,0,12.59,0,19.305,0C66.045,331.761,49.258,317.493,49.258,317.493"/>
		<path style="fill:#FFFFFF;" d="M49.258,317.493v-20.984c-15.948-5.036-25.18-12.59-25.18-12.59v33.574
			c0,0,19.305,16.787,50.361,16.787c5.875,0,12.59,0,19.305,0C66.045,331.761,49.258,317.493,49.258,317.493"/>
	</g>
	<g>
		<path style="fill:#FFA800;" d="M446.267,236.915c-62.111-13.43-104.918-34.413-104.918-34.413l-4.197,10.072
			c18.466,7.554,47.843,17.626,83.934,25.18c62.111,13.43,53.718,54.557,41.128,62.111c-12.59,7.554-55.397,19.305-55.397,19.305
			c-26.02,10.911-52.039,15.948-77.22,17.626c31.895,0,67.987-4.197,102.4-19.305c0,0,42.807-11.751,55.397-19.305
			C499.986,291.473,508.379,251.184,446.267,236.915"/>
		<path style="fill:#FFA800;" d="M491.592,266.293c-3.357,1.679-5.036,2.518-5.036,2.518c-3.357,1.679-9.233,4.197-15.948,6.715
			c2.518,12.59-2.518,23.502-9.233,27.698c-12.59,6.715-56.236,16.787-56.236,16.787c-26.859,9.233-53.718,13.43-78.898,14.269
			c31.895,0.839,67.987-1.679,103.239-14.269c0,0,42.807-10.072,56.236-16.787C493.271,298.188,499.986,282.24,491.592,266.293"/>
	</g>
	<path d="M74.438,342.673c-34.413,0-55.397-18.466-56.236-19.305c-1.679-0.839-2.518-3.357-2.518-5.875v-31.056
		c-25.18-36.092-16.787-102.4-7.554-123.384c0.839-2.518,2.518-4.197,5.036-4.197c2.518-0.839,5.036-0.839,6.715,0
		c43.646,24.341,262.715,58.754,301.325,65.469l14.269-27.698c0.839-1.679,2.518-3.357,5.036-4.197c2.518-0.839,5.036-0.839,6.715,0
		c0,0,41.967,21.823,101.561,37.77c43.646,11.751,52.879,34.413,53.718,47.003c1.679,15.108-5.875,27.698-14.269,32.734
		c-9.233,5.036-31.895,11.751-48.682,15.948c-5.875,1.679-10.911,3.357-15.948,5.036l-1.679,0.839
		c-25.18,8.393-52.039,11.751-83.095,11.751c-26.859,0-52.039-3.357-71.344-5.036c-13.43-2.518-25.18-4.197-33.574-4.197h-0.839
		c-15.948,0-40.289,1.679-66.308,3.357C136.549,340.155,102.136,342.673,74.438,342.673z M32.471,313.296
		c5.875,4.197,20.984,12.59,41.967,12.59c26.859,0,61.272-2.518,90.649-5.036c26.02-1.679,50.361-3.357,67.148-3.357h1.679
		c9.233,0,20.984,1.679,34.413,3.357c19.305,2.518,43.646,5.036,69.666,5.036c29.377,0,54.557-3.357,78.059-10.911l1.679-0.839
		c5.875-1.679,11.751-3.357,16.787-5.036c22.662-5.875,39.449-10.911,45.325-14.269c2.518-0.839,6.715-7.554,5.036-15.948
		c-0.839-8.393-7.554-23.502-41.967-32.734c-47.003-12.59-82.256-28.538-97.364-35.252l-13.429,26.02
		c-1.679,3.357-5.036,5.036-8.393,4.197c-8.393-0.839-237.534-35.252-303.003-62.951c-6.715,24.341-9.233,75.541,10.072,100.721
		c0.839,1.679,1.679,3.357,1.679,5.036V313.296z"/>
	<path d="M74.438,342.673c-34.413,0-55.397-18.466-56.236-19.305c-1.679-0.839-2.518-3.357-2.518-5.875v-33.574
		c0-3.357,1.679-6.715,5.036-7.554c3.357-1.679,6.715-0.839,9.233,0.839c0,0,17.626,15.108,44.485,15.108s61.272-2.518,90.649-5.036
		c26.02-1.679,50.361-3.357,67.148-3.357h1.679c9.233,0,20.984,1.679,34.413,3.357c19.305,2.518,43.646,5.036,69.666,5.036
		c29.377,0,54.557-3.357,78.059-10.911c5.875-1.679,11.751-4.197,18.466-5.875c22.662-5.875,39.449-10.911,45.325-14.269
		c0,0,2.518-0.839,5.875-2.518c4.197-1.679,8.393-0.839,10.911,3.357c5.875,9.233,6.715,20.144,4.197,30.216
		c-2.518,7.554-6.715,14.269-12.59,17.626c-9.233,5.036-31.895,11.751-49.521,15.948c-5.875,1.679-10.911,3.357-16.787,5.036
		c-25.18,8.393-52.879,12.59-83.934,12.59c-26.859,0-52.039-3.357-71.344-5.036c-12.59-2.518-24.341-4.197-32.734-4.197h-0.839
		c-15.948,0-40.289,1.679-66.308,3.357C136.549,340.155,102.136,342.673,74.438,342.673z M32.471,313.296
		c5.875,4.197,20.984,12.59,41.967,12.59c26.859,0,61.272-2.518,90.649-5.036c26.02-1.679,50.361-3.357,67.148-3.357h1.679
		c9.233,0,20.984,1.679,34.413,3.357c19.305,2.518,43.646,5.036,69.666,5.036c29.377,0,54.557-3.357,78.059-10.911
		c5.875-1.679,12.59-4.197,18.466-5.875c22.662-5.875,39.449-10.911,45.325-14.269c0.839-0.839,3.357-3.357,5.036-7.554
		c0.839-2.518,0.839-5.875,0-10.072c-10.911,5.036-31.056,10.072-46.164,14.269c-5.875,1.679-10.911,3.357-16.787,5.036
		c-25.18,8.393-52.879,11.751-83.934,11.751c-26.859,0-52.039-3.357-71.344-5.036c-12.59-0.839-24.341-2.518-32.734-2.518h-0.839
		c-15.948,0-40.289,1.679-66.308,3.357c-30.216,2.518-64.63,5.036-92.328,5.036c-17.626,0-32.734-5.036-41.967-10.072V313.296z"/>
	<path d="M338.831,309.099L338.831,309.099c-7.554,0-14.269,0-20.984-0.839c-4.197,0-8.393-4.197-7.554-8.393
		c0.839-32.734,3.357-56.236,9.233-69.666l16.787-34.413c0.839-1.679,2.518-3.357,5.036-4.197c1.679,0,4.197,0,5.875,0.839
		c0,0,41.967,21.823,101.561,37.77c24.341,6.715,40.289,16.787,48.682,31.056c0.839,1.679,1.679,4.197,0.839,6.715
		c-0.839,2.518-2.518,4.197-4.197,5.036l-5.036,2.518c-9.233,5.036-31.895,11.751-49.521,15.948
		c-5.036,1.679-10.911,3.357-15.948,5.036l-1.679,0.839C396.746,304.902,369.887,309.099,338.831,309.099z M326.241,292.312
		c4.197,0,7.554,0,11.751,0c29.377,0,54.557-3.357,78.059-10.911l1.679-0.839c5.875-1.679,10.911-3.357,16.787-5.036
		c19.305-5.036,33.574-9.233,41.967-12.59c-6.715-6.715-18.466-12.59-32.734-15.948c-47.003-12.59-82.256-28.538-97.364-35.252
		l-13.429,26.02C329.599,246.988,327.081,265.453,326.241,292.312z"/>
	<path d="M250.7,267.132c-27.698,0-50.361-22.662-50.361-50.361c0-0.839,0-1.679,0-2.518c0-2.518,1.679-5.036,3.357-6.715
		c1.679-1.679,4.197-2.518,6.715-1.679c32.734,5.875,62.951,10.911,82.256,14.269c2.518,0,4.197,1.679,5.875,3.357
		c1.679,1.679,1.679,4.197,0.839,6.715C293.507,252.024,273.363,267.132,250.7,267.132z M217.966,224.325
		c3.357,15.108,16.787,26.02,32.734,26.02c11.751,0,22.662-5.875,28.538-15.948C262.451,231.879,241.467,228.522,217.966,224.325z"
		/>
	<path d="M8.13,241.952c-4.197,0-8.393-3.357-8.393-7.554c-2.518-28.538,2.518-57.915,8.393-71.344
		c0.839-2.518,2.518-4.197,5.036-4.197c2.518-0.839,5.036-0.839,6.715,0c5.875,3.357,15.948,7.554,29.377,11.751
		c2.518,0.839,5.036,2.518,5.875,5.036c1.679,5.875,2.518,10.911,2.518,15.948C57.651,219.289,35.828,241.112,8.13,241.952
		L8.13,241.952z M20.72,178.161c-3.357,11.751-5.036,28.538-5.036,46.164c14.269-4.197,25.18-16.787,25.18-32.734
		c0-1.679,0-4.197-0.839-6.715C32.471,182.358,25.756,180.679,20.72,178.161z"/>
	<path d="M410.176,267.132c-27.698,0-50.361-22.662-50.361-50.361c0-1.679,0-3.357,0-5.036v-0.839c0-2.518,1.679-5.036,4.197-5.875
		c2.518-1.679,5.036-1.679,7.554-0.839c16.787,7.554,43.646,17.626,76.38,26.02c2.518,0.839,5.036,2.518,5.875,5.036
		c0.839,2.518,0.839,5.036-0.839,7.554C443.749,257.899,427.802,267.132,410.176,267.132z M377.441,224.325
		c3.357,15.108,16.787,26.02,32.734,26.02c7.554,0,15.108-2.518,20.984-7.554C410.176,236.915,391.71,230.201,377.441,224.325z"/>
	<path d="M83.671,309.099c-4.197,0-7.554-2.518-8.393-6.715c0-3.357-0.839-6.715-0.839-10.072c0-27.698,22.662-50.361,50.361-50.361
		s50.361,22.662,50.361,50.361c0,0.839,0,2.518,0,3.357v0.839c0,4.197-3.357,7.554-7.554,7.554
		C139.907,306.581,109.69,308.26,83.671,309.099L83.671,309.099z M124.799,258.738c-18.466,0-33.574,15.108-33.574,33.574
		c20.984-0.839,44.485-2.518,67.148-4.197C155.854,271.329,142.425,258.738,124.799,258.738z"/>
</g>
</svg>