<svg width="364" height="49" viewBox="0 0 364 49" fill="none" xmlns="http://www.w3.org/2000/svg">
<path d="M0.98877 8.88989C0.98877 4.47161 4.57049 0.889893 8.98877 0.889893H355.136C359.554 0.889893 363.136 4.47161 363.136 8.88989V40.8701C363.136 45.2884 359.554 48.8701 355.136 48.8701H8.98877C4.5705 48.8701 0.98877 45.2884 0.98877 40.8701V8.88989Z" fill="#16A34A"/>
<g clip-path="url(#clip0_34_1650)">
<path d="M132.495 33.2072C132.955 33.2072 133.328 32.8344 133.328 32.3745C133.328 31.9146 132.955 31.5417 132.495 31.5417C132.035 31.5417 131.663 31.9146 131.663 32.3745C131.663 32.8344 132.035 33.2072 132.495 33.2072Z" stroke="white" stroke-width="2" stroke-linecap="round" stroke-linejoin="round"/>
<path d="M141.656 33.2072C142.116 33.2072 142.488 32.8344 142.488 32.3745C142.488 31.9146 142.116 31.5417 141.656 31.5417C141.196 31.5417 140.823 31.9146 140.823 32.3745C140.823 32.8344 141.196 33.2072 141.656 33.2072Z" stroke="white" stroke-width="2" stroke-linecap="round" stroke-linejoin="round"/>
<path d="M127.541 16.594H129.206L131.421 26.9367C131.502 27.3155 131.713 27.6541 132.017 27.8942C132.321 28.1344 132.699 28.261 133.087 28.2524H141.231C141.61 28.2518 141.977 28.1219 142.273 27.8842C142.568 27.6465 142.773 27.3152 142.855 26.945L144.229 20.7577H130.097" stroke="white" stroke-width="2" stroke-linecap="round" stroke-linejoin="round"/>
</g>
<path d="M160.342 28.7854H158.758L162.317 18.8945H164.042L167.601 28.7854H166.017L163.221 20.6911H163.143L160.342 28.7854ZM160.608 24.9121H165.746V26.1678H160.608V24.9121ZM171.571 28.9303C170.972 28.9303 170.438 28.7774 169.967 28.4715C169.501 28.1624 169.134 27.7229 168.866 27.153C168.602 26.5799 168.47 25.8925 168.47 25.0908C168.47 24.2891 168.604 23.6033 168.871 23.0334C169.142 22.4635 169.512 22.0273 169.982 21.7246C170.452 21.422 170.985 21.2706 171.581 21.2706C172.041 21.2706 172.411 21.3479 172.691 21.5024C172.975 21.6538 173.194 21.8309 173.348 22.0337C173.506 22.2365 173.628 22.4152 173.715 22.5698H173.802V18.8945H175.246V28.7854H173.836V27.6311H173.715C173.628 27.7889 173.503 27.9692 173.338 28.172C173.177 28.3749 172.955 28.552 172.672 28.7033C172.389 28.8546 172.022 28.9303 171.571 28.9303ZM171.89 27.6988C172.305 27.6988 172.656 27.5893 172.942 27.3703C173.232 27.1482 173.451 26.8407 173.599 26.4479C173.751 26.0551 173.826 25.5979 173.826 25.0763C173.826 24.5612 173.752 24.1104 173.604 23.724C173.456 23.3377 173.239 23.0366 172.952 22.8209C172.666 22.6052 172.311 22.4973 171.89 22.4973C171.455 22.4973 171.093 22.61 170.803 22.8354C170.513 23.0608 170.294 23.3683 170.146 23.7578C170.001 24.1474 169.929 24.5869 169.929 25.0763C169.929 25.5721 170.003 26.0181 170.151 26.4141C170.299 26.8101 170.518 27.124 170.808 27.3559C171.101 27.5845 171.461 27.6988 171.89 27.6988ZM180.084 28.9303C179.485 28.9303 178.951 28.7774 178.481 28.4715C178.014 28.1624 177.647 27.7229 177.38 27.153C177.116 26.5799 176.984 25.8925 176.984 25.0908C176.984 24.2891 177.117 23.6033 177.384 23.0334C177.655 22.4635 178.025 22.0273 178.495 21.7246C178.965 21.422 179.498 21.2706 180.094 21.2706C180.554 21.2706 180.924 21.3479 181.205 21.5024C181.488 21.6538 181.707 21.8309 181.861 22.0337C182.019 22.2365 182.142 22.4152 182.228 22.5698H182.315V18.8945H183.759V28.7854H182.349V27.6311H182.228C182.142 27.7889 182.016 27.9692 181.852 28.172C181.691 28.3749 181.469 28.552 181.185 28.7033C180.902 28.8546 180.535 28.9303 180.084 28.9303ZM180.403 27.6988C180.818 27.6988 181.169 27.5893 181.456 27.3703C181.746 27.1482 181.964 26.8407 182.113 26.4479C182.264 26.0551 182.34 25.5979 182.34 25.0763C182.34 24.5612 182.265 24.1104 182.117 23.724C181.969 23.3377 181.752 23.0366 181.465 22.8209C181.179 22.6052 180.825 22.4973 180.403 22.4973C179.968 22.4973 179.606 22.61 179.316 22.8354C179.026 23.0608 178.808 23.3683 178.659 23.7578C178.515 24.1474 178.442 24.5869 178.442 25.0763C178.442 25.5721 178.516 26.0181 178.664 26.4141C178.812 26.8101 179.031 27.124 179.321 27.3559C179.614 27.5845 179.975 27.6988 180.403 27.6988ZM192.882 21.3672V22.5263H188.83V21.3672H192.882ZM189.917 19.5899H191.361V26.6073C191.361 26.8874 191.403 27.0983 191.487 27.2399C191.57 27.3784 191.678 27.4734 191.81 27.5249C191.946 27.5732 192.092 27.5973 192.25 27.5973C192.366 27.5973 192.467 27.5893 192.554 27.5732C192.641 27.5571 192.709 27.5442 192.757 27.5345L193.018 28.7274C192.934 28.7596 192.815 28.7918 192.66 28.824C192.506 28.8595 192.313 28.8788 192.081 28.882C191.701 28.8884 191.347 28.8208 191.018 28.6792C190.69 28.5375 190.424 28.3185 190.221 28.0223C190.019 27.7261 189.917 27.3542 189.917 26.9067V19.5899ZM197.525 28.9351C196.829 28.9351 196.222 28.7757 195.704 28.457C195.186 28.1382 194.783 27.6923 194.497 27.1192C194.21 26.5461 194.067 25.8764 194.067 25.1101C194.067 24.3406 194.21 23.6677 194.497 23.0914C194.783 22.515 195.186 22.0675 195.704 21.7488C196.222 21.43 196.829 21.2706 197.525 21.2706C198.22 21.2706 198.827 21.43 199.346 21.7488C199.864 22.0675 200.266 22.515 200.553 23.0914C200.84 23.6677 200.983 24.3406 200.983 25.1101C200.983 25.8764 200.84 26.5461 200.553 27.1192C200.266 27.6923 199.864 28.1382 199.346 28.457C198.827 28.7757 198.22 28.9351 197.525 28.9351ZM197.53 27.7229C197.98 27.7229 198.354 27.6038 198.65 27.3655C198.946 27.1273 199.165 26.8101 199.307 26.4141C199.452 26.0181 199.524 25.5818 199.524 25.1053C199.524 24.632 199.452 24.1973 199.307 23.8013C199.165 23.4021 198.946 23.0817 198.65 22.8402C198.354 22.5988 197.98 22.478 197.53 22.478C197.076 22.478 196.699 22.5988 196.4 22.8402C196.103 23.0817 195.883 23.4021 195.738 23.8013C195.596 24.1973 195.525 24.632 195.525 25.1053C195.525 25.5818 195.596 26.0181 195.738 26.4141C195.883 26.8101 196.103 27.1273 196.4 27.3655C196.699 27.6038 197.076 27.7229 197.53 27.7229ZM214.525 22.111H213.018C212.96 21.789 212.852 21.5057 212.694 21.261C212.537 21.0163 212.343 20.8086 212.115 20.638C211.886 20.4673 211.63 20.3385 211.347 20.2516C211.067 20.1647 210.769 20.1212 210.454 20.1212C209.884 20.1212 209.373 20.2645 208.923 20.551C208.475 20.8376 208.121 21.2577 207.86 21.8115C207.602 22.3653 207.474 23.0415 207.474 23.8399C207.474 24.6449 207.602 25.3242 207.86 25.878C208.121 26.4318 208.477 26.8504 208.927 27.1337C209.378 27.417 209.885 27.5587 210.449 27.5587C210.761 27.5587 211.057 27.5168 211.337 27.4331C211.621 27.3462 211.877 27.219 212.105 27.0516C212.334 26.8842 212.527 26.6797 212.685 26.4382C212.846 26.1935 212.957 25.9134 213.018 25.5979L214.525 25.6027C214.444 26.0889 214.288 26.5364 214.056 26.9453C213.828 27.351 213.533 27.702 213.173 27.9982C212.815 28.2912 212.406 28.5182 211.946 28.6792C211.485 28.8401 210.983 28.9206 210.439 28.9206C209.583 28.9206 208.82 28.7178 208.15 28.3121C207.48 27.9032 206.952 27.3188 206.566 26.559C206.183 25.7991 205.991 24.8928 205.991 23.8399C205.991 22.7839 206.184 21.8775 206.571 21.1209C206.957 20.3611 207.485 19.7783 208.155 19.3726C208.824 18.9637 209.586 18.7593 210.439 18.7593C210.964 18.7593 211.453 18.8349 211.907 18.9863C212.364 19.1344 212.775 19.3533 213.139 19.6431C213.503 19.9296 213.804 20.2806 214.042 20.6959C214.28 21.108 214.441 21.5797 214.525 22.111ZM218.353 28.9496C217.883 28.9496 217.458 28.8627 217.078 28.6888C216.699 28.5117 216.397 28.2558 216.175 27.9209C215.956 27.5861 215.847 27.1756 215.847 26.6894C215.847 26.2708 215.927 25.9263 216.088 25.6559C216.249 25.3854 216.467 25.1713 216.74 25.0135C217.014 24.8558 217.32 24.7366 217.658 24.6561C217.996 24.5756 218.341 24.5145 218.692 24.4726C219.136 24.4211 219.496 24.3792 219.773 24.347C220.05 24.3116 220.251 24.2553 220.377 24.178C220.503 24.1007 220.565 23.9752 220.565 23.8013V23.7675C220.565 23.3457 220.446 23.0189 220.208 22.7871C219.973 22.5553 219.622 22.4394 219.155 22.4394C218.669 22.4394 218.286 22.5472 218.006 22.763C217.729 22.9755 217.537 23.2121 217.431 23.4729L216.074 23.1638C216.235 22.7131 216.47 22.3492 216.779 22.0723C217.091 21.7922 217.45 21.5894 217.856 21.4638C218.262 21.335 218.688 21.2706 219.136 21.2706C219.432 21.2706 219.746 21.306 220.078 21.3769C220.412 21.4445 220.725 21.5701 221.015 21.7536C221.308 21.9371 221.547 22.1995 221.734 22.5408C221.921 22.8789 222.014 23.3184 222.014 23.8593V28.7854H220.604V27.7712H220.546C220.453 27.9579 220.313 28.1415 220.126 28.3218C219.939 28.5021 219.699 28.6518 219.406 28.7709C219.113 28.89 218.762 28.9496 218.353 28.9496ZM218.667 27.7905C219.067 27.7905 219.408 27.7116 219.691 27.5539C219.978 27.3961 220.195 27.19 220.343 26.9357C220.495 26.6781 220.57 26.4028 220.57 26.1098V25.1536C220.519 25.2051 220.419 25.2534 220.271 25.2985C220.126 25.3403 219.96 25.3774 219.773 25.4095C219.587 25.4385 219.405 25.4659 219.228 25.4917C219.051 25.5142 218.902 25.5335 218.783 25.5496C218.503 25.585 218.247 25.6446 218.015 25.7283C217.787 25.812 217.603 25.9327 217.465 26.0905C217.33 26.2451 217.262 26.4511 217.262 26.7087C217.262 27.0661 217.394 27.3365 217.658 27.5201C217.922 27.7004 218.258 27.7905 218.667 27.7905ZM223.938 28.7854V21.3672H225.333V22.5456H225.411C225.546 22.1464 225.784 21.8325 226.125 21.6039C226.47 21.372 226.859 21.2561 227.294 21.2561C227.384 21.2561 227.491 21.2594 227.613 21.2658C227.738 21.2722 227.837 21.2803 227.908 21.2899V22.6712C227.85 22.6551 227.747 22.6374 227.598 22.6181C227.45 22.5955 227.302 22.5843 227.154 22.5843C226.813 22.5843 226.509 22.6567 226.241 22.8016C225.977 22.9433 225.768 23.1413 225.613 23.3956C225.459 23.6468 225.382 23.9333 225.382 24.2553V28.7854H223.938ZM233.058 21.3672V22.5263H229.006V21.3672H233.058ZM230.093 19.5899H231.537V26.6073C231.537 26.8874 231.579 27.0983 231.662 27.2399C231.746 27.3784 231.854 27.4734 231.986 27.5249C232.121 27.5732 232.268 27.5973 232.426 27.5973C232.541 27.5973 232.643 27.5893 232.73 27.5732C232.817 27.5571 232.884 27.5442 232.933 27.5345L233.193 28.7274C233.11 28.7596 232.991 28.7918 232.836 28.824C232.682 28.8595 232.488 28.8788 232.257 28.882C231.877 28.8884 231.522 28.8208 231.194 28.6792C230.866 28.5375 230.6 28.3185 230.397 28.0223C230.194 27.7261 230.093 27.3542 230.093 26.9067V19.5899Z" fill="white"/>
<defs>
<clipPath id="clip0_34_1650">
<rect width="19.9859" height="19.9859" fill="white" transform="translate(125.833 14.887)"/>
</clipPath>
</defs>
</svg>
