<svg width="21" height="21" viewBox="0 0 21 21" fill="none" xmlns="http://www.w3.org/2000/svg">
<g clip-path="url(#clip0_34_1651)">
<path d="M7.49534 19.2072C7.95525 19.2072 8.32809 18.8344 8.32809 18.3745C8.32809 17.9146 7.95525 17.5417 7.49534 17.5417C7.03543 17.5417 6.6626 17.9146 6.6626 18.3745C6.6626 18.8344 7.03543 19.2072 7.49534 19.2072Z" stroke="white" stroke-width="2" stroke-linecap="round" stroke-linejoin="round"/>
<path d="M16.6557 19.2072C17.1157 19.2072 17.4885 18.8344 17.4885 18.3745C17.4885 17.9146 17.1157 17.5417 16.6557 17.5417C16.1958 17.5417 15.823 17.9146 15.823 18.3745C15.823 18.8344 16.1958 19.2072 16.6557 19.2072Z" stroke="white" stroke-width="2" stroke-linecap="round" stroke-linejoin="round"/>
<path d="M2.54053 2.59399H4.20602L6.42112 12.9367C6.50238 13.3155 6.71314 13.6541 7.01712 13.8942C7.32111 14.1344 7.6993 14.261 8.08661 14.2524H16.2309C16.6099 14.2518 16.9774 14.1219 17.2726 13.8842C17.5679 13.6465 17.7732 13.3152 17.8547 12.945L19.2287 6.75772H5.09705" stroke="white" stroke-width="2" stroke-linecap="round" stroke-linejoin="round"/>
</g>
<defs>
<clipPath id="clip0_34_1651">
<rect width="19.9859" height="19.9859" fill="white" transform="translate(0.833496 0.886963)"/>
</clipPath>
</defs>
</svg>
