<svg width="21" height="21" viewBox="0 0 21 21" fill="none" xmlns="http://www.w3.org/2000/svg">
<g clip-path="url(#clip0_36_3275)">
<path d="M6.75203 19.2399C7.21227 19.2399 7.58537 18.8668 7.58537 18.4066C7.58537 17.9463 7.21227 17.5732 6.75203 17.5732C6.2918 17.5732 5.9187 17.9463 5.9187 18.4066C5.9187 18.8668 6.2918 19.2399 6.75203 19.2399Z" stroke="#6B7280" stroke-width="2" stroke-linecap="round" stroke-linejoin="round"/>
<path d="M15.9162 19.2399C16.3765 19.2399 16.7496 18.8668 16.7496 18.4066C16.7496 17.9463 16.3765 17.5732 15.9162 17.5732C15.456 17.5732 15.0829 17.9463 15.0829 18.4066C15.0829 18.8668 15.456 19.2399 15.9162 19.2399Z" stroke="#6B7280" stroke-width="2" stroke-linecap="round" stroke-linejoin="round"/>
<path d="M1.7948 2.6189H3.46103L5.6771 12.9662C5.7584 13.3451 5.96925 13.6839 6.27337 13.9241C6.57749 14.1644 6.95585 14.2911 7.34333 14.2825H15.4912C15.8704 14.2819 16.238 14.1519 16.5334 13.9141C16.8288 13.6763 17.0342 13.3448 17.1157 12.9745L18.4904 6.78446H4.35246" stroke="#6B7280" stroke-width="2" stroke-linecap="round" stroke-linejoin="round"/>
</g>
<defs>
<clipPath id="clip0_36_3275">
<rect width="19.9947" height="19.9947" fill="white" transform="translate(0.0869141 0.911011)"/>
</clipPath>
</defs>
</svg>
