<svg width="15" height="15" viewBox="0 0 15 15" fill="none" xmlns="http://www.w3.org/2000/svg">
<g clip-path="url(#clip0_35_1948)">
<path d="M5.56979 13.633C5.89189 13.633 6.153 13.3719 6.153 13.0498C6.153 12.7277 5.89189 12.4666 5.56979 12.4666C5.24769 12.4666 4.98657 12.7277 4.98657 13.0498C4.98657 13.3719 5.24769 13.633 5.56979 13.633Z" stroke="white" stroke-width="2" stroke-linecap="round" stroke-linejoin="round"/>
<path d="M11.9851 13.633C12.3072 13.633 12.5683 13.3719 12.5683 13.0498C12.5683 12.7277 12.3072 12.4666 11.9851 12.4666C11.663 12.4666 11.4019 12.7277 11.4019 13.0498C11.4019 13.3719 11.663 13.633 11.9851 13.633Z" stroke="white" stroke-width="2" stroke-linecap="round" stroke-linejoin="round"/>
<path d="M2.09961 1.9978H3.26604L4.81739 9.24134C4.8743 9.50662 5.02191 9.74377 5.23481 9.91196C5.44771 10.0801 5.71258 10.1689 5.98383 10.1628H11.6877C11.9531 10.1624 12.2105 10.0714 12.4173 9.90494C12.6241 9.73846 12.7679 9.50643 12.8249 9.24717L13.7873 4.91388H3.89008" stroke="white" stroke-width="2" stroke-linecap="round" stroke-linejoin="round"/>
</g>
<defs>
<clipPath id="clip0_35_1948">
<rect width="13.9972" height="13.9972" fill="white" transform="translate(0.904053 0.802246)"/>
</clipPath>
</defs>
</svg>
