<svg width="376" height="745" viewBox="0 0 376 745" fill="none" xmlns="http://www.w3.org/2000/svg">
<g clip-path="url(#clip0_1_5)">
<rect width="375.141" height="744.859" fill="white"/>
<path d="M147.585 322.429C147.585 300.346 165.487 282.444 187.571 282.444C209.654 282.444 227.557 300.346 227.557 322.429C227.557 344.513 209.654 362.415 187.571 362.415C165.487 362.415 147.585 344.513 147.585 322.429Z" fill="#22C55E"/>
<path d="M195.57 318.43C195.57 320.552 194.727 322.586 193.227 324.087C191.727 325.587 189.692 326.43 187.571 326.43C185.449 326.43 183.415 325.587 181.914 324.087C180.414 322.586 179.572 320.552 179.572 318.43" stroke="white" stroke-width="2" stroke-linecap="round" stroke-linejoin="round"/>
<path d="M169.779 310.499H205.363" stroke="white" stroke-width="2" stroke-linecap="round" stroke-linejoin="round"/>
<path d="M170.373 309.365C169.853 310.057 169.573 310.899 169.573 311.765V338.428C169.573 339.488 169.994 340.506 170.744 341.256C171.494 342.006 172.512 342.427 173.572 342.427H201.569C202.63 342.427 203.647 342.006 204.397 341.256C205.147 340.506 205.569 339.488 205.569 338.428V311.765C205.569 310.899 205.288 310.057 204.769 309.365L200.769 304.032C200.397 303.535 199.913 303.132 199.358 302.854C198.803 302.576 198.19 302.432 197.569 302.432H177.572C176.951 302.432 176.339 302.576 175.783 302.854C175.228 303.132 174.745 303.535 174.372 304.032L170.373 309.365Z" stroke="white" stroke-width="2" stroke-linecap="round" stroke-linejoin="round"/>
<path d="M146.38 401.038C146.293 400.162 145.92 399.481 145.261 398.996C144.601 398.51 143.707 398.268 142.577 398.268C141.809 398.268 141.16 398.376 140.631 398.594C140.103 398.804 139.697 399.097 139.414 399.474C139.139 399.85 139.001 400.278 139.001 400.756C138.987 401.154 139.07 401.502 139.251 401.799C139.44 402.096 139.697 402.353 140.023 402.571C140.349 402.781 140.726 402.965 141.153 403.125C141.58 403.277 142.037 403.407 142.522 403.516L144.522 403.994C145.492 404.211 146.383 404.501 147.195 404.863C148.006 405.226 148.709 405.671 149.303 406.2C149.897 406.729 150.357 407.352 150.683 408.069C151.016 408.786 151.186 409.609 151.194 410.536C151.186 411.898 150.839 413.079 150.15 414.078C149.469 415.071 148.484 415.842 147.195 416.393C145.913 416.936 144.366 417.208 142.555 417.208C140.758 417.208 139.193 416.933 137.86 416.382C136.535 415.831 135.499 415.016 134.753 413.937C134.014 412.85 133.626 411.507 133.59 409.906H138.143C138.194 410.652 138.407 411.275 138.784 411.775C139.168 412.267 139.679 412.64 140.316 412.894C140.961 413.14 141.689 413.263 142.5 413.263C143.297 413.263 143.989 413.147 144.576 412.916C145.17 412.684 145.63 412.361 145.956 411.948C146.282 411.535 146.445 411.061 146.445 410.525C146.445 410.025 146.296 409.605 145.999 409.264C145.71 408.924 145.282 408.634 144.717 408.395C144.159 408.156 143.475 407.939 142.663 407.743L140.24 407.135C138.364 406.678 136.882 405.965 135.796 404.994C134.709 404.023 134.169 402.716 134.177 401.071C134.169 399.724 134.528 398.546 135.253 397.539C135.984 396.533 136.988 395.747 138.263 395.181C139.538 394.616 140.986 394.334 142.609 394.334C144.261 394.334 145.702 394.616 146.934 395.181C148.173 395.747 149.136 396.533 149.824 397.539C150.513 398.546 150.868 399.713 150.889 401.038H146.38ZM158.901 407.243V416.893H154.272V394.638H158.77V403.147H158.966C159.343 402.161 159.951 401.39 160.791 400.832C161.632 400.267 162.686 399.984 163.954 399.984C165.113 399.984 166.123 400.238 166.985 400.745C167.855 401.245 168.528 401.966 169.007 402.908C169.492 403.842 169.731 404.961 169.724 406.265V416.893H165.095V407.091C165.102 406.062 164.841 405.262 164.312 404.69C163.791 404.117 163.059 403.831 162.117 403.831C161.487 403.831 160.929 403.965 160.444 404.233C159.966 404.501 159.589 404.892 159.314 405.407C159.046 405.914 158.908 406.526 158.901 407.243ZM180.908 417.219C179.22 417.219 177.76 416.86 176.529 416.143C175.305 415.418 174.359 414.411 173.693 413.122C173.026 411.825 172.693 410.322 172.693 408.612C172.693 406.888 173.026 405.381 173.693 404.092C174.359 402.795 175.305 401.788 176.529 401.071C177.76 400.347 179.22 399.984 180.908 399.984C182.596 399.984 184.052 400.347 185.276 401.071C186.508 401.788 187.457 402.795 188.123 404.092C188.79 405.381 189.123 406.888 189.123 408.612C189.123 410.322 188.79 411.825 188.123 413.122C187.457 414.411 186.508 415.418 185.276 416.143C184.052 416.86 182.596 417.219 180.908 417.219ZM180.93 413.633C181.698 413.633 182.339 413.415 182.853 412.981C183.367 412.539 183.755 411.938 184.016 411.177C184.284 410.416 184.418 409.551 184.418 408.58C184.418 407.609 184.284 406.743 184.016 405.983C183.755 405.222 183.367 404.621 182.853 404.179C182.339 403.737 181.698 403.516 180.93 403.516C180.155 403.516 179.503 403.737 178.974 404.179C178.452 404.621 178.057 405.222 177.789 405.983C177.529 406.743 177.398 407.609 177.398 408.58C177.398 409.551 177.529 410.416 177.789 411.177C178.057 411.938 178.452 412.539 178.974 412.981C179.503 413.415 180.155 413.633 180.93 413.633ZM192.133 423.152V400.202H196.697V403.005H196.903C197.106 402.556 197.4 402.1 197.784 401.636C198.175 401.165 198.682 400.774 199.305 400.463C199.935 400.144 200.718 399.984 201.652 399.984C202.869 399.984 203.992 400.303 205.021 400.941C206.049 401.571 206.872 402.524 207.487 403.799C208.103 405.066 208.411 406.656 208.411 408.569C208.411 410.431 208.11 412.003 207.509 413.285C206.915 414.56 206.104 415.527 205.075 416.186C204.054 416.838 202.909 417.164 201.641 417.164C200.743 417.164 199.979 417.016 199.348 416.719C198.725 416.422 198.215 416.049 197.816 415.6C197.418 415.143 197.114 414.683 196.903 414.22H196.762V423.152H192.133ZM196.664 408.547C196.664 409.54 196.802 410.405 197.077 411.144C197.353 411.883 197.751 412.459 198.273 412.872C198.794 413.278 199.428 413.481 200.174 413.481C200.928 413.481 201.565 413.274 202.087 412.861C202.608 412.441 203.003 411.861 203.271 411.123C203.547 410.376 203.684 409.518 203.684 408.547C203.684 407.584 203.55 406.736 203.282 406.004C203.014 405.273 202.619 404.7 202.098 404.288C201.576 403.875 200.935 403.668 200.174 403.668C199.421 403.668 198.783 403.867 198.262 404.266C197.747 404.664 197.353 405.229 197.077 405.961C196.802 406.693 196.664 407.555 196.664 408.547ZM216.126 394.638V416.893H211.497V394.638H216.126ZM222.692 423.152C222.106 423.152 221.555 423.105 221.041 423.01C220.534 422.924 220.113 422.811 219.78 422.674L220.823 419.218C221.367 419.385 221.856 419.475 222.29 419.49C222.732 419.504 223.113 419.403 223.431 419.185C223.757 418.968 224.022 418.599 224.225 418.077L224.496 417.371L218.509 400.202H223.377L226.832 412.459H227.006L230.494 400.202H235.395L228.908 418.697C228.596 419.595 228.173 420.377 227.637 421.044C227.108 421.717 226.438 422.235 225.626 422.598C224.815 422.967 223.837 423.152 222.692 423.152Z" fill="black"/>
<path d="M95.7095 444.869C95.6443 444.319 95.3799 443.891 94.9163 443.587C94.4526 443.283 93.884 443.131 93.2102 443.131C92.7176 443.131 92.2866 443.21 91.9171 443.37C91.5513 443.529 91.2651 443.748 91.0587 444.027C90.8558 444.306 90.7544 444.623 90.7544 444.978C90.7544 445.275 90.825 445.53 90.9663 445.744C91.1112 445.954 91.2959 446.13 91.5205 446.271C91.7451 446.409 91.9805 446.523 92.2268 446.613C92.4731 446.7 92.6995 446.771 92.906 446.825L94.0361 447.129C94.3259 447.206 94.6482 447.311 95.0032 447.445C95.3618 447.579 95.7041 447.762 96.0301 447.993C96.3597 448.222 96.6314 448.515 96.8451 448.874C97.0588 449.232 97.1656 449.672 97.1656 450.194C97.1656 450.795 97.0081 451.338 96.6929 451.824C96.3814 452.309 95.925 452.695 95.3238 452.981C94.7261 453.267 93.9999 453.41 93.145 453.41C92.3482 453.41 91.6581 453.282 91.075 453.025C90.4954 452.767 90.039 452.409 89.7058 451.949C89.3762 451.489 89.1896 450.954 89.1462 450.346H90.5371C90.5733 450.766 90.7146 451.114 90.9609 451.389C91.2108 451.661 91.5259 451.864 91.9063 451.998C92.2902 452.128 92.7031 452.193 93.145 452.193C93.6594 452.193 94.1212 452.11 94.5305 451.943C94.9398 451.773 95.264 451.538 95.5031 451.237C95.7421 450.933 95.8617 450.578 95.8617 450.172C95.8617 449.803 95.7584 449.502 95.552 449.27C95.3455 449.038 95.0738 448.85 94.737 448.705C94.4001 448.56 94.0361 448.433 93.6449 448.325L92.2757 447.934C91.4064 447.684 90.7182 447.327 90.2111 446.863C89.704 446.4 89.4504 445.793 89.4504 445.043C89.4504 444.42 89.6189 443.877 89.9557 443.413C90.2962 442.946 90.7526 442.584 91.3249 442.327C91.9008 442.066 92.5438 441.935 93.2537 441.935C93.9709 441.935 94.6084 442.064 95.1662 442.321C95.724 442.575 96.1659 442.922 96.4919 443.364C96.8215 443.806 96.9954 444.308 97.0135 444.869H95.7095ZM100.489 448.194V453.215H99.2072V442.087H100.489V446.173H100.598C100.794 445.742 101.087 445.4 101.478 445.146C101.873 444.889 102.398 444.761 103.054 444.761C103.623 444.761 104.121 444.875 104.548 445.103C104.975 445.327 105.307 445.673 105.542 446.141C105.781 446.604 105.901 447.195 105.901 447.912V453.215H104.619V447.999C104.619 447.336 104.447 446.823 104.103 446.461C103.762 446.095 103.289 445.912 102.684 445.912C102.264 445.912 101.888 446.001 101.554 446.179C101.225 446.356 100.964 446.615 100.772 446.956C100.584 447.296 100.489 447.709 100.489 448.194ZM111.637 453.389C110.884 453.389 110.223 453.209 109.654 452.851C109.089 452.492 108.647 451.99 108.328 451.346C108.013 450.701 107.856 449.948 107.856 449.085C107.856 448.216 108.013 447.457 108.328 446.809C108.647 446.161 109.089 445.657 109.654 445.298C110.223 444.94 110.884 444.761 111.637 444.761C112.39 444.761 113.05 444.94 113.615 445.298C114.183 445.657 114.625 446.161 114.94 446.809C115.259 447.457 115.419 448.216 115.419 449.085C115.419 449.948 115.259 450.701 114.94 451.346C114.625 451.99 114.183 452.492 113.615 452.851C113.05 453.209 112.39 453.389 111.637 453.389ZM111.637 452.237C112.209 452.237 112.68 452.09 113.05 451.797C113.419 451.503 113.693 451.117 113.87 450.639C114.048 450.161 114.136 449.643 114.136 449.085C114.136 448.528 114.048 448.008 113.87 447.526C113.693 447.044 113.419 446.655 113.05 446.358C112.68 446.061 112.209 445.912 111.637 445.912C111.065 445.912 110.594 446.061 110.224 446.358C109.855 446.655 109.581 447.044 109.404 447.526C109.227 448.008 109.138 448.528 109.138 449.085C109.138 449.643 109.227 450.161 109.404 450.639C109.581 451.117 109.855 451.503 110.224 451.797C110.594 452.09 111.065 452.237 111.637 452.237ZM117.376 456.344V444.869H118.615V446.195H118.767C118.861 446.05 118.991 445.865 119.158 445.641C119.328 445.413 119.571 445.21 119.886 445.032C120.205 444.851 120.636 444.761 121.179 444.761C121.882 444.761 122.501 444.936 123.037 445.288C123.573 445.639 123.992 446.137 124.292 446.782C124.593 447.427 124.743 448.187 124.743 449.064C124.743 449.948 124.593 450.714 124.292 451.362C123.992 452.007 123.575 452.507 123.043 452.862C122.51 453.213 121.896 453.389 121.201 453.389C120.665 453.389 120.236 453.3 119.913 453.122C119.591 452.941 119.343 452.737 119.169 452.508C118.995 452.277 118.861 452.085 118.767 451.932H118.658V456.344H117.376ZM118.636 449.042C118.636 449.672 118.729 450.228 118.914 450.71C119.098 451.188 119.368 451.563 119.723 451.835C120.078 452.103 120.513 452.237 121.027 452.237C121.563 452.237 122.01 452.095 122.369 451.813C122.731 451.527 123.003 451.143 123.184 450.661C123.369 450.176 123.461 449.636 123.461 449.042C123.461 448.455 123.371 447.926 123.189 447.455C123.012 446.981 122.742 446.606 122.38 446.331C122.021 446.052 121.57 445.912 121.027 445.912C120.505 445.912 120.067 446.045 119.712 446.309C119.357 446.57 119.089 446.936 118.908 447.407C118.727 447.874 118.636 448.419 118.636 449.042ZM136.914 446.738L135.762 447.064C135.69 446.872 135.583 446.686 135.441 446.505C135.304 446.32 135.115 446.168 134.876 446.048C134.637 445.929 134.331 445.869 133.958 445.869C133.447 445.869 133.022 445.987 132.681 446.222C132.344 446.454 132.176 446.749 132.176 447.108C132.176 447.427 132.292 447.678 132.524 447.863C132.756 448.048 133.118 448.202 133.61 448.325L134.849 448.629C135.595 448.81 136.151 449.087 136.517 449.46C136.883 449.83 137.066 450.306 137.066 450.889C137.066 451.367 136.928 451.795 136.653 452.172C136.381 452.548 136.001 452.845 135.512 453.063C135.023 453.28 134.454 453.389 133.806 453.389C132.955 453.389 132.25 453.204 131.693 452.834C131.135 452.465 130.782 451.925 130.633 451.215L131.85 450.911C131.966 451.36 132.185 451.697 132.507 451.922C132.833 452.146 133.259 452.258 133.784 452.258C134.382 452.258 134.856 452.132 135.208 451.878C135.563 451.621 135.74 451.313 135.74 450.954C135.74 450.665 135.639 450.422 135.436 450.226C135.233 450.027 134.922 449.879 134.501 449.781L133.111 449.455C132.346 449.274 131.785 448.993 131.426 448.613C131.071 448.229 130.894 447.749 130.894 447.173C130.894 446.702 131.026 446.286 131.29 445.923C131.558 445.561 131.923 445.277 132.383 445.07C132.846 444.864 133.371 444.761 133.958 444.761C134.784 444.761 135.432 444.942 135.903 445.304C136.378 445.666 136.715 446.144 136.914 446.738ZM138.996 453.215V444.869H140.235V446.173H140.344C140.517 445.728 140.798 445.382 141.186 445.135C141.573 444.886 142.039 444.761 142.582 444.761C143.133 444.761 143.591 444.886 143.957 445.135C144.326 445.382 144.614 445.728 144.821 446.173H144.908C145.121 445.742 145.442 445.4 145.869 445.146C146.297 444.889 146.809 444.761 147.407 444.761C148.153 444.761 148.763 444.994 149.238 445.461C149.712 445.925 149.95 446.648 149.95 447.629V453.215H148.667V447.629C148.667 447.014 148.499 446.573 148.162 446.309C147.825 446.045 147.429 445.912 146.972 445.912C146.385 445.912 145.931 446.09 145.608 446.445C145.286 446.796 145.125 447.242 145.125 447.781V453.215H143.821V447.499C143.821 447.024 143.667 446.642 143.359 446.353C143.051 446.059 142.655 445.912 142.169 445.912C141.836 445.912 141.524 446.001 141.235 446.179C140.948 446.356 140.717 446.602 140.539 446.918C140.365 447.229 140.278 447.59 140.278 447.999V453.215H138.996ZM154.75 453.41C154.221 453.41 153.741 453.311 153.31 453.111C152.879 452.909 152.537 452.617 152.283 452.237C152.03 451.853 151.903 451.389 151.903 450.846C151.903 450.368 151.997 449.98 152.185 449.683C152.374 449.382 152.625 449.147 152.941 448.977C153.256 448.807 153.603 448.68 153.984 448.596C154.368 448.51 154.753 448.441 155.141 448.39C155.648 448.325 156.059 448.276 156.374 448.243C156.693 448.207 156.925 448.147 157.07 448.064C157.218 447.981 157.293 447.836 157.293 447.629V447.586C157.293 447.05 157.146 446.633 156.852 446.336C156.563 446.039 156.123 445.891 155.532 445.891C154.92 445.891 154.44 446.025 154.092 446.293C153.745 446.561 153.5 446.847 153.359 447.151L152.142 446.717C152.359 446.209 152.649 445.815 153.011 445.532C153.377 445.246 153.775 445.047 154.206 444.934C154.641 444.819 155.069 444.761 155.489 444.761C155.757 444.761 156.065 444.793 156.412 444.858C156.764 444.92 157.102 445.049 157.428 445.244C157.758 445.44 158.031 445.735 158.249 446.13C158.466 446.525 158.575 447.053 158.575 447.716V453.215H157.293V452.085H157.227C157.14 452.266 156.996 452.46 156.793 452.666C156.59 452.872 156.32 453.048 155.983 453.193C155.646 453.338 155.235 453.41 154.75 453.41ZM154.945 452.258C155.453 452.258 155.88 452.159 156.228 451.96C156.579 451.76 156.843 451.503 157.021 451.188C157.202 450.873 157.293 450.542 157.293 450.194V449.02C157.238 449.085 157.119 449.145 156.934 449.2C156.753 449.25 156.543 449.296 156.304 449.335C156.068 449.372 155.838 449.404 155.614 449.433C155.393 449.459 155.213 449.48 155.076 449.498C154.743 449.542 154.431 449.612 154.141 449.71C153.855 449.804 153.623 449.948 153.446 450.14C153.272 450.328 153.185 450.585 153.185 450.911C153.185 451.357 153.35 451.693 153.679 451.922C154.013 452.146 154.435 452.258 154.945 452.258ZM160.915 453.215V444.869H162.154V446.13H162.241C162.393 445.717 162.668 445.382 163.067 445.125C163.465 444.867 163.914 444.739 164.414 444.739C164.508 444.739 164.626 444.741 164.767 444.744C164.909 444.748 165.015 444.753 165.088 444.761V446.065C165.044 446.054 164.945 446.037 164.789 446.016C164.637 445.99 164.476 445.978 164.306 445.978C163.9 445.978 163.538 446.063 163.219 446.233C162.904 446.4 162.654 446.631 162.469 446.928C162.288 447.222 162.197 447.557 162.197 447.934V453.215H160.915ZM170.76 444.869V445.956H166.435V444.869H170.76ZM167.696 442.87H168.978V450.824C168.978 451.186 169.031 451.458 169.136 451.639C169.244 451.817 169.382 451.936 169.549 451.998C169.719 452.056 169.898 452.085 170.086 452.085C170.228 452.085 170.344 452.077 170.434 452.063C170.525 452.045 170.597 452.03 170.652 452.019L170.912 453.171C170.825 453.204 170.704 453.236 170.548 453.269C170.393 453.305 170.195 453.323 169.956 453.323C169.594 453.323 169.239 453.246 168.891 453.09C168.547 452.934 168.261 452.697 168.033 452.378C167.808 452.059 167.696 451.657 167.696 451.172V442.87ZM176.098 453.389C175.294 453.389 174.601 453.211 174.017 452.856C173.438 452.498 172.991 451.998 172.675 451.357C172.364 450.712 172.208 449.962 172.208 449.107C172.208 448.252 172.364 447.499 172.675 446.847C172.991 446.191 173.429 445.681 173.99 445.315C174.555 444.945 175.215 444.761 175.968 444.761C176.403 444.761 176.832 444.833 177.256 444.978C177.679 445.123 178.065 445.358 178.413 445.684C178.761 446.007 179.038 446.434 179.244 446.966C179.451 447.499 179.554 448.155 179.554 448.933V449.477H173.121V448.368H178.25C178.25 447.897 178.156 447.477 177.967 447.108C177.783 446.738 177.518 446.447 177.174 446.233C176.834 446.019 176.432 445.912 175.968 445.912C175.457 445.912 175.015 446.039 174.642 446.293C174.273 446.543 173.988 446.869 173.789 447.271C173.59 447.673 173.49 448.104 173.49 448.564V449.303C173.49 449.933 173.599 450.467 173.816 450.906C174.037 451.34 174.343 451.672 174.735 451.9C175.126 452.124 175.58 452.237 176.098 452.237C176.435 452.237 176.739 452.19 177.011 452.095C177.286 451.998 177.524 451.853 177.723 451.661C177.922 451.465 178.076 451.223 178.185 450.933L179.424 451.28C179.293 451.701 179.074 452.07 178.766 452.389C178.458 452.704 178.078 452.95 177.625 453.128C177.172 453.302 176.663 453.389 176.098 453.389ZM181.504 453.215V444.869H182.743V446.13H182.83C182.982 445.717 183.258 445.382 183.656 445.125C184.054 444.867 184.504 444.739 185.003 444.739C185.098 444.739 185.215 444.741 185.357 444.744C185.498 444.748 185.605 444.753 185.677 444.761V446.065C185.634 446.054 185.534 446.037 185.378 446.016C185.226 445.99 185.065 445.978 184.895 445.978C184.489 445.978 184.127 446.063 183.808 446.233C183.493 446.4 183.243 446.631 183.058 446.928C182.877 447.222 182.787 447.557 182.787 447.934V453.215H181.504ZM188.153 451.693L188.066 452.28C188.005 452.693 187.911 453.135 187.784 453.606C187.661 454.077 187.532 454.521 187.398 454.937C187.264 455.354 187.154 455.685 187.067 455.931H186.089C186.136 455.7 186.197 455.393 186.273 455.013C186.35 454.633 186.426 454.207 186.502 453.736C186.581 453.269 186.647 452.791 186.697 452.302L186.762 451.693H188.153ZM196.114 448.194V453.215H194.832V444.869H196.071V446.173H196.18C196.375 445.749 196.672 445.409 197.071 445.152C197.469 444.891 197.983 444.761 198.614 444.761C199.179 444.761 199.673 444.877 200.097 445.108C200.521 445.337 200.85 445.684 201.086 446.152C201.321 446.615 201.439 447.202 201.439 447.912V453.215H200.157V447.999C200.157 447.343 199.987 446.832 199.646 446.467C199.306 446.097 198.838 445.912 198.244 445.912C197.835 445.912 197.469 446.001 197.147 446.179C196.828 446.356 196.576 446.615 196.392 446.956C196.207 447.296 196.114 447.709 196.114 448.194ZM207.172 453.389C206.419 453.389 205.758 453.209 205.189 452.851C204.624 452.492 204.182 451.99 203.864 451.346C203.548 450.701 203.391 449.948 203.391 449.085C203.391 448.216 203.548 447.457 203.864 446.809C204.182 446.161 204.624 445.657 205.189 445.298C205.758 444.94 206.419 444.761 207.172 444.761C207.926 444.761 208.585 444.94 209.15 445.298C209.719 445.657 210.161 446.161 210.476 446.809C210.795 447.457 210.954 448.216 210.954 449.085C210.954 449.948 210.795 450.701 210.476 451.346C210.161 451.99 209.719 452.492 209.15 452.851C208.585 453.209 207.926 453.389 207.172 453.389ZM207.172 452.237C207.745 452.237 208.216 452.09 208.585 451.797C208.955 451.503 209.228 451.117 209.405 450.639C209.583 450.161 209.672 449.643 209.672 449.085C209.672 448.528 209.583 448.008 209.405 447.526C209.228 447.044 208.955 446.655 208.585 446.358C208.216 446.061 207.745 445.912 207.172 445.912C206.6 445.912 206.129 446.061 205.76 446.358C205.39 446.655 205.117 447.044 204.939 447.526C204.762 448.008 204.673 448.528 204.673 449.085C204.673 449.643 204.762 450.161 204.939 450.639C205.117 451.117 205.39 451.503 205.76 451.797C206.129 452.09 206.6 452.237 207.172 452.237ZM216.541 444.869V445.956H212.216V444.869H216.541ZM213.476 442.87H214.759V450.824C214.759 451.186 214.811 451.458 214.916 451.639C215.025 451.817 215.162 451.936 215.329 451.998C215.499 452.056 215.679 452.085 215.867 452.085C216.008 452.085 216.124 452.077 216.215 452.063C216.305 452.045 216.378 452.03 216.432 452.019L216.693 453.171C216.606 453.204 216.485 453.236 216.329 453.269C216.173 453.305 215.976 453.323 215.737 453.323C215.374 453.323 215.019 453.246 214.672 453.09C214.328 452.934 214.041 452.697 213.813 452.378C213.589 452.059 213.476 451.657 213.476 451.172V442.87ZM224.055 448.194V453.215H222.773V442.087H224.055V446.173H224.164C224.359 445.742 224.653 445.4 225.044 445.146C225.439 444.889 225.964 444.761 226.619 444.761C227.188 444.761 227.686 444.875 228.113 445.103C228.541 445.327 228.872 445.673 229.108 446.141C229.347 446.604 229.466 447.195 229.466 447.912V453.215H228.184V447.999C228.184 447.336 228.012 446.823 227.668 446.461C227.327 446.095 226.855 445.912 226.25 445.912C225.83 445.912 225.453 446.001 225.12 446.179C224.79 446.356 224.529 446.615 224.337 446.956C224.149 447.296 224.055 447.709 224.055 448.194ZM234.268 453.41C233.739 453.41 233.259 453.311 232.828 453.111C232.397 452.909 232.055 452.617 231.801 452.237C231.548 451.853 231.421 451.389 231.421 450.846C231.421 450.368 231.515 449.98 231.703 449.683C231.892 449.382 232.144 449.147 232.459 448.977C232.774 448.807 233.122 448.68 233.502 448.596C233.886 448.51 234.272 448.441 234.659 448.39C235.166 448.325 235.577 448.276 235.893 448.243C236.211 448.207 236.443 448.147 236.588 448.064C236.736 447.981 236.811 447.836 236.811 447.629V447.586C236.811 447.05 236.664 446.633 236.371 446.336C236.081 446.039 235.641 445.891 235.05 445.891C234.438 445.891 233.958 446.025 233.611 446.293C233.263 446.561 233.018 446.847 232.877 447.151L231.66 446.717C231.877 446.209 232.167 445.815 232.529 445.532C232.895 445.246 233.294 445.047 233.725 444.934C234.159 444.819 234.587 444.761 235.007 444.761C235.275 444.761 235.583 444.793 235.931 444.858C236.282 444.92 236.621 445.049 236.947 445.244C237.276 445.44 237.55 445.735 237.767 446.13C237.984 446.525 238.093 447.053 238.093 447.716V453.215H236.811V452.085H236.746C236.659 452.266 236.514 452.46 236.311 452.666C236.108 452.872 235.838 453.048 235.501 453.193C235.164 453.338 234.753 453.41 234.268 453.41ZM234.464 452.258C234.971 452.258 235.398 452.159 235.746 451.96C236.097 451.76 236.362 451.503 236.539 451.188C236.72 450.873 236.811 450.542 236.811 450.194V449.02C236.756 449.085 236.637 449.145 236.452 449.2C236.271 449.25 236.061 449.296 235.822 449.335C235.586 449.372 235.356 449.404 235.132 449.433C234.911 449.459 234.732 449.48 234.594 449.498C234.261 449.542 233.949 449.612 233.659 449.71C233.373 449.804 233.141 449.948 232.964 450.14C232.79 450.328 232.703 450.585 232.703 450.911C232.703 451.357 232.868 451.693 233.198 451.922C233.531 452.146 233.953 452.258 234.464 452.258ZM240.433 453.215V444.869H241.672V446.13H241.759C241.911 445.717 242.186 445.382 242.585 445.125C242.983 444.867 243.432 444.739 243.932 444.739C244.027 444.739 244.144 444.741 244.286 444.744C244.427 444.748 244.534 444.753 244.606 444.761V446.065C244.563 446.054 244.463 446.037 244.307 446.016C244.155 445.99 243.994 445.978 243.824 445.978C243.418 445.978 243.056 446.063 242.737 446.233C242.422 446.4 242.172 446.631 241.987 446.928C241.806 447.222 241.716 447.557 241.716 447.934V453.215H240.433ZM249.023 453.389C248.328 453.389 247.714 453.213 247.181 452.862C246.649 452.507 246.232 452.007 245.932 451.362C245.631 450.714 245.481 449.948 245.481 449.064C245.481 448.187 245.631 447.427 245.932 446.782C246.232 446.137 246.651 445.639 247.187 445.288C247.723 444.936 248.342 444.761 249.045 444.761C249.588 444.761 250.018 444.851 250.333 445.032C250.651 445.21 250.894 445.413 251.061 445.641C251.231 445.865 251.363 446.05 251.457 446.195H251.566V442.087H252.848V453.215H251.61V451.932H251.457C251.363 452.085 251.229 452.277 251.055 452.508C250.881 452.737 250.633 452.941 250.311 453.122C249.989 453.3 249.559 453.389 249.023 453.389ZM249.197 452.237C249.712 452.237 250.146 452.103 250.501 451.835C250.856 451.563 251.126 451.188 251.311 450.71C251.495 450.228 251.588 449.672 251.588 449.042C251.588 448.419 251.497 447.874 251.316 447.407C251.135 446.936 250.867 446.57 250.512 446.309C250.157 446.045 249.719 445.912 249.197 445.912C248.654 445.912 248.201 446.052 247.839 446.331C247.48 446.606 247.21 446.981 247.029 447.455C246.852 447.926 246.763 448.455 246.763 449.042C246.763 449.636 246.854 450.176 247.035 450.661C247.219 451.143 247.491 451.527 247.85 451.813C248.212 452.095 248.661 452.237 249.197 452.237ZM258.874 453.389C258.07 453.389 257.376 453.211 256.793 452.856C256.213 452.498 255.766 451.998 255.451 451.357C255.139 450.712 254.984 449.962 254.984 449.107C254.984 448.252 255.139 447.499 255.451 446.847C255.766 446.191 256.204 445.681 256.766 445.315C257.331 444.945 257.99 444.761 258.743 444.761C259.178 444.761 259.607 444.833 260.031 444.978C260.455 445.123 260.841 445.358 261.188 445.684C261.536 446.007 261.813 446.434 262.02 446.966C262.226 447.499 262.329 448.155 262.329 448.933V449.477H255.896V448.368H261.025C261.025 447.897 260.931 447.477 260.743 447.108C260.558 446.738 260.294 446.447 259.95 446.233C259.609 446.019 259.207 445.912 258.743 445.912C258.233 445.912 257.791 446.039 257.418 446.293C257.048 446.543 256.764 446.869 256.565 447.271C256.365 447.673 256.266 448.104 256.266 448.564V449.303C256.266 449.933 256.374 450.467 256.592 450.906C256.813 451.34 257.119 451.672 257.51 451.9C257.901 452.124 258.356 452.237 258.874 452.237C259.211 452.237 259.515 452.19 259.787 452.095C260.062 451.998 260.299 451.853 260.498 451.661C260.698 451.465 260.851 451.223 260.96 450.933L262.199 451.28C262.069 451.701 261.849 452.07 261.541 452.389C261.234 452.704 260.853 452.95 260.4 453.128C259.948 453.302 259.439 453.389 258.874 453.389ZM264.28 453.215V444.869H265.519V446.13H265.606C265.758 445.717 266.033 445.382 266.431 445.125C266.83 444.867 267.279 444.739 267.779 444.739C267.873 444.739 267.991 444.741 268.132 444.744C268.273 444.748 268.38 444.753 268.453 444.761V446.065C268.409 446.054 268.309 446.037 268.154 446.016C268.002 445.99 267.84 445.978 267.67 445.978C267.264 445.978 266.902 446.063 266.584 446.233C266.268 446.4 266.018 446.631 265.834 446.928C265.653 447.222 265.562 447.557 265.562 447.934V453.215H264.28Z" fill="#16A34A"/>
<path d="M155.565 694.866C155.565 693.762 156.46 692.867 157.564 692.867H217.564C218.667 692.867 219.562 693.762 219.562 694.866C219.562 695.97 218.667 696.864 217.564 696.864H157.564C156.46 696.864 155.565 695.97 155.565 694.866Z" fill="#22C55E"/>
</g>
<defs>
<clipPath id="clip0_1_5">
<rect width="375.141" height="744.859" fill="white"/>
</clipPath>
</defs>
</svg>
