<svg width="15" height="15" viewBox="0 0 15 15" fill="none" xmlns="http://www.w3.org/2000/svg">
<g clip-path="url(#clip0_36_3638)">
<path d="M5.96527 12.4639C5.96522 12.5723 5.99537 12.6785 6.05233 12.7707C6.1093 12.8629 6.19082 12.9374 6.28777 12.9859L7.45413 13.569C7.54306 13.6135 7.64188 13.6344 7.74119 13.6299C7.84051 13.6254 7.93702 13.5956 8.02158 13.5433C8.10613 13.491 8.17591 13.418 8.22428 13.3311C8.27266 13.2443 8.29803 13.1465 8.29799 13.0471V8.96483C8.29812 8.6758 8.40556 8.39711 8.59949 8.18279L12.8118 3.52377C12.8873 3.44012 12.9369 3.33639 12.9547 3.22512C12.9725 3.11385 12.9577 2.99981 12.912 2.89678C12.8664 2.79376 12.7919 2.70617 12.6975 2.6446C12.6031 2.58304 12.4929 2.55013 12.3802 2.54987H1.88302C1.77023 2.54991 1.65988 2.58265 1.56533 2.64413C1.47078 2.70561 1.39608 2.79319 1.35029 2.89625C1.30449 2.99932 1.28957 3.11345 1.30732 3.22483C1.32507 3.33621 1.37473 3.44005 1.4503 3.52377L5.66377 8.18279C5.85769 8.39711 5.96514 8.6758 5.96527 8.96483V12.4639Z" stroke="black" stroke-width="2" stroke-linecap="round" stroke-linejoin="round"/>
</g>
<defs>
<clipPath id="clip0_36_3638">
<rect width="13.9963" height="13.9963" fill="white" transform="translate(0.133484 0.800323)"/>
</clipPath>
</defs>
</svg>
