<svg width="21" height="21" viewBox="0 0 21 21" fill="none" xmlns="http://www.w3.org/2000/svg">
<g clip-path="url(#clip0_31_1389)">
<path d="M10.8742 18.8006C15.4733 18.8006 19.2017 15.0723 19.2017 10.4732C19.2017 5.87408 15.4733 2.14575 10.8742 2.14575C6.27508 2.14575 2.54675 5.87408 2.54675 10.4732C2.54675 15.0723 6.27508 18.8006 10.8742 18.8006Z" stroke="#4B5563" stroke-width="2" stroke-linecap="round" stroke-linejoin="round"/>
<path d="M8.45093 7.97496C8.64671 7.41841 9.03314 6.9491 9.54179 6.65017C10.0504 6.35124 10.6485 6.24196 11.2299 6.3417C11.8114 6.44145 12.3389 6.74376 12.7188 7.19511C13.0988 7.64647 13.3067 8.21772 13.3058 8.8077C13.3058 10.4732 10.8076 11.3059 10.8076 11.3059" stroke="#4B5563" stroke-width="2" stroke-linecap="round" stroke-linejoin="round"/>
<path d="M10.8741 14.6369H10.8825" stroke="#4B5563" stroke-width="2" stroke-linecap="round" stroke-linejoin="round"/>
</g>
<defs>
<clipPath id="clip0_31_1389">
<rect width="19.9859" height="19.9859" fill="white" transform="translate(0.881226 0.480255)"/>
</clipPath>
</defs>
</svg>
