<svg width="21" height="21" viewBox="0 0 21 21" fill="none" xmlns="http://www.w3.org/2000/svg">
<path d="M13.126 18.4063V11.7414C13.126 11.5205 13.0382 11.3086 12.882 11.1523C12.7257 10.9961 12.5138 10.9083 12.2929 10.9083H8.96043C8.73948 10.9083 8.52757 10.9961 8.37133 11.1523C8.21509 11.3086 8.12732 11.5205 8.12732 11.7414V18.4063" stroke="#22C55E" stroke-width="2" stroke-linecap="round" stroke-linejoin="round"/>
<path d="M3.12866 9.2421C3.1286 8.99972 3.18143 8.76025 3.28344 8.54039C3.38546 8.32052 3.53422 8.12556 3.71934 7.96911L9.55113 2.97127C9.85187 2.71709 10.2329 2.57764 10.6267 2.57764C11.0204 2.57764 11.4015 2.71709 11.7022 2.97127L17.534 7.96911C17.7191 8.12556 17.8679 8.32052 17.9699 8.54039C18.0719 8.76025 18.1247 8.99972 18.1247 9.2421V16.7401C18.1247 17.182 17.9491 17.6058 17.6367 17.9183C17.3242 18.2308 16.9004 18.4063 16.4585 18.4063H4.79489C4.35298 18.4063 3.92917 18.2308 3.61669 17.9183C3.30421 17.6058 3.12866 17.182 3.12866 16.7401V9.2421Z" stroke="#22C55E" stroke-width="2" stroke-linecap="round" stroke-linejoin="round"/>
</svg>
