<svg width="21" height="21" viewBox="0 0 21 21" fill="none" xmlns="http://www.w3.org/2000/svg">
<g clip-path="url(#clip0_119_39)">
<path d="M17.6451 9.26006C17.6451 13.4187 13.0317 17.7497 11.4826 19.0874C11.3382 19.1959 11.1626 19.2546 10.982 19.2546C10.8014 19.2546 10.6257 19.1959 10.4814 19.0874C8.93224 17.7497 4.31885 13.4187 4.31885 9.26006C4.31885 7.49289 5.02085 5.79809 6.27043 4.54851C7.52002 3.29893 9.21481 2.59692 10.982 2.59692C12.7492 2.59692 14.444 3.29893 15.6935 4.54851C16.9431 5.79809 17.6451 7.49289 17.6451 9.26006Z" stroke="#22C55E" stroke-width="2" stroke-linecap="round" stroke-linejoin="round"/>
<path d="M10.982 11.7588C12.3619 11.7588 13.4806 10.6401 13.4806 9.26015C13.4806 7.88017 12.3619 6.76147 10.982 6.76147C9.60197 6.76147 8.48328 7.88017 8.48328 9.26015C8.48328 10.6401 9.60197 11.7588 10.982 11.7588Z" stroke="#22C55E" stroke-width="2" stroke-linecap="round" stroke-linejoin="round"/>
</g>
<defs>
<clipPath id="clip0_119_39">
<rect width="19.9894" height="19.9894" fill="white" transform="translate(0.987305 0.931152)"/>
</clipPath>
</defs>
</svg>
