<svg width="33" height="33" viewBox="0 0 33 33" fill="none" xmlns="http://www.w3.org/2000/svg">
<path d="M0.985229 16.9783C0.985229 8.14553 8.14559 0.985168 16.9783 0.985168C25.8111 0.985168 32.9715 8.14553 32.9715 16.9783C32.9715 25.811 25.8111 32.9714 16.9783 32.9714C8.14559 32.9714 0.985229 25.811 0.985229 16.9783Z" fill="#22C55E"/>
<g clip-path="url(#clip0_43_4234)">
<path d="M13.9726 24.465C14.3865 24.465 14.7221 24.1295 14.7221 23.7155C14.7221 23.3016 14.3865 22.9661 13.9726 22.9661C13.5587 22.9661 13.2231 23.3016 13.2231 23.7155C13.2231 24.1295 13.5587 24.465 13.9726 24.465Z" stroke="white" stroke-width="2" stroke-linecap="round" stroke-linejoin="round"/>
<path d="M22.2168 24.465C22.6307 24.465 22.9662 24.1295 22.9662 23.7155C22.9662 23.3016 22.6307 22.9661 22.2168 22.9661C21.8028 22.9661 21.4673 23.3016 21.4673 23.7155C21.4673 24.1295 21.8028 24.465 22.2168 24.465Z" stroke="white" stroke-width="2" stroke-linecap="round" stroke-linejoin="round"/>
<path d="M9.51318 9.51312H11.0121L13.0057 18.8215C13.0788 19.1624 13.2685 19.4672 13.5421 19.6833C13.8157 19.8995 14.1561 20.0135 14.5047 20.0057H21.8345C22.1756 20.0052 22.5064 19.8883 22.7721 19.6743C23.0378 19.4604 23.2226 19.1622 23.2959 18.829L24.5326 13.2605H11.8141" stroke="white" stroke-width="2" stroke-linecap="round" stroke-linejoin="round"/>
</g>
<defs>
<clipPath id="clip0_43_4234">
<rect width="17.9873" height="17.9873" fill="white" transform="translate(7.97681 7.97668)"/>
</clipPath>
</defs>
</svg>
