<?xml version="1.0" encoding="iso-8859-1"?>
<!-- Uploaded to: SVG Repo, www.svgrepo.com, Generator: SVG Repo Mixer Tools -->
<svg version="1.1" id="Layer_1" xmlns="http://www.w3.org/2000/svg" xmlns:xlink="http://www.w3.org/1999/xlink" 
	 viewBox="0 0 512 512" xml:space="preserve">
<path style="fill:#FFFFFF;" d="M512,128v256c0,8.448-6.912,15.36-15.36,15.36H15.36C6.912,399.36,0,392.448,0,384V128
	c0-8.448,6.912-15.36,15.36-15.36h481.28C505.088,112.64,512,119.552,512,128z"/>
<rect x="40.96" y="128" width="409.6" height="256"/>
<g>
	<path style="fill:#999999;" d="M25.6,225.544v61.44c0,2.816-2.304,5.12-5.12,5.12l0,0c-2.816,0-5.12-2.304-5.12-5.12v-61.44
		c0-2.816,2.304-5.12,5.12-5.12l0,0C23.296,220.424,25.6,222.728,25.6,225.544z"/>
	<path style="fill:#999999;" d="M481.28,225.28v61.44c0,2.816-2.304,5.12-5.12,5.12l0,0c-2.816,0-5.12-2.304-5.12-5.12v-61.44
		c0-2.816,2.304-5.12,5.12-5.12l0,0C478.976,220.16,481.28,222.464,481.28,225.28z"/>
</g>
<path style="fill:#E50914;" d="M167.064,166.704v178.56H85.552v-178.56L167.064,166.704 M175.064,158.704H77.552v194.56h97.512
	V158.704L175.064,158.704z"/>
<path style="fill:#999999;" d="M284.28,168.944v174.08h-77.032v-174.08H284.28 M294.52,158.704h-97.512v194.56h97.512V158.704
	L294.52,158.704z"/>
<path style="fill:#E50914;" d="M405.984,166.704v178.56h-81.512v-178.56L405.984,166.704 M413.984,158.704h-97.512v194.56h97.512
	L413.984,158.704L413.984,158.704z"/>
</svg>