<svg width="21" height="21" viewBox="0 0 21 21" fill="none" xmlns="http://www.w3.org/2000/svg">
<g clip-path="url(#clip0_31_1351)">
<path d="M14.2052 9.1721C14.2052 10.0555 13.8542 10.9028 13.2296 11.5275C12.6049 12.1521 11.7576 12.5031 10.8742 12.5031C9.99076 12.5031 9.14351 12.1521 8.51883 11.5275C7.89415 10.9028 7.54321 10.0555 7.54321 9.1721" stroke="#4B5563" stroke-width="2" stroke-linecap="round" stroke-linejoin="round"/>
<path d="M3.46521 5.86943H18.2831" stroke="#4B5563" stroke-width="2" stroke-linecap="round" stroke-linejoin="round"/>
<path d="M3.71261 5.39727C3.4964 5.68556 3.37952 6.0362 3.37952 6.39656V17.4995C3.37952 17.9413 3.55499 18.3649 3.86733 18.6772C4.17967 18.9896 4.60329 19.165 5.04501 19.165H16.7034C17.1452 19.165 17.5688 18.9896 17.8811 18.6772C18.1935 18.3649 18.3689 17.9413 18.3689 17.4995V6.39656C18.3689 6.0362 18.252 5.68556 18.0358 5.39727L16.3703 3.17634C16.2152 2.96949 16.014 2.8016 15.7828 2.68597C15.5515 2.57034 15.2965 2.51014 15.0379 2.51014H6.7105C6.45194 2.51014 6.19693 2.57034 5.96567 2.68597C5.7344 2.8016 5.53324 2.96949 5.3781 3.17634L3.71261 5.39727Z" stroke="#4B5563" stroke-width="2" stroke-linecap="round" stroke-linejoin="round"/>
</g>
<defs>
<clipPath id="clip0_31_1351">
<rect width="19.9859" height="19.9859" fill="white" transform="translate(0.881226 0.84465)"/>
</clipPath>
</defs>
</svg>
