<svg width="33" height="33" viewBox="0 0 33 33" fill="none" xmlns="http://www.w3.org/2000/svg">
<g clip-path="url(#clip0_31_776)">
<path d="M15.1023 23.8218C15.2526 24.0727 15.4663 24.2795 15.7219 24.4216C15.9775 24.5637 16.2659 24.6359 16.5582 24.6311C16.8505 24.6262 17.1364 24.5445 17.3871 24.3941C17.6378 24.2436 17.8446 24.0298 17.9865 23.7741" stroke="black" stroke-width="2" stroke-linecap="round" stroke-linejoin="round"/>
<path d="M9.19075 19.1941C9.08395 19.3151 9.01462 19.4646 8.9912 19.6242C8.96777 19.7839 8.99126 19.947 9.0588 20.0936C9.12635 20.2402 9.23504 20.364 9.37165 20.4499C9.50826 20.5359 9.66691 20.5803 9.82829 20.5778L23.1504 20.3574C23.3117 20.3548 23.4689 20.3053 23.6027 20.2151C23.7364 20.1248 23.8411 19.9976 23.9039 19.849C23.9668 19.7003 23.9851 19.5366 23.9566 19.3778C23.9281 19.2189 23.8541 19.0718 23.7435 18.9542C22.6172 17.831 21.4231 16.6373 21.3612 12.8913C21.3393 11.5663 20.7919 10.3043 19.8395 9.3829C18.8871 8.46151 17.6077 7.95619 16.2827 7.9781C14.9578 8.00002 13.6958 8.54738 12.7744 9.49977C11.853 10.4522 11.3477 11.7316 11.3696 13.0565C11.4316 16.8025 10.2768 18.0351 9.19075 19.1941Z" stroke="black" stroke-width="2" stroke-linecap="round" stroke-linejoin="round"/>
</g>
<defs>
<clipPath id="clip0_31_776">
<rect width="19.9859" height="19.9859" fill="white" transform="translate(6.26361 6.47803) rotate(-0.947673)"/>
</clipPath>
</defs>
</svg>
