<svg width="49" height="49" viewBox="0 0 49 49" fill="none" xmlns="http://www.w3.org/2000/svg">
<path d="M40.5687 26.4404C40.5687 36.4393 33.5696 41.4387 25.2505 44.3383C24.8149 44.486 24.3417 44.4789 23.9107 44.3183C15.5717 41.4387 8.57251 36.4393 8.57251 26.4404V12.4421C8.57251 11.9117 8.7832 11.4031 9.15823 11.028C9.53326 10.653 10.0419 10.4423 10.5723 10.4423C14.5718 10.4423 19.5712 8.04261 23.0508 5.00297C23.4745 4.64101 24.0134 4.44214 24.5706 4.44214C25.1279 4.44214 25.6668 4.64101 26.0904 5.00297C29.59 8.06261 34.5695 10.4423 38.569 10.4423C39.0994 10.4423 39.608 10.653 39.983 11.028C40.3581 11.4031 40.5687 11.9117 40.5687 12.4421V26.4404Z" stroke="#22C55E" stroke-width="2" stroke-linecap="round" stroke-linejoin="round"/>
<path d="M18.5714 24.4412L22.5709 28.4412L30.57 20.4412" stroke="#22C55E" stroke-width="2" stroke-linecap="round" stroke-linejoin="round"/>
</svg>
