<svg width="57" height="21" viewBox="0 0 57 21" fill="none" xmlns="http://www.w3.org/2000/svg">
<path d="M6.19308 7.44445C6.14237 7.01624 5.93671 6.6838 5.5761 6.44715C5.21549 6.21051 4.77319 6.09218 4.24918 6.09218C3.86604 6.09218 3.53079 6.15416 3.24343 6.27812C2.95889 6.40208 2.73633 6.57252 2.57575 6.78945C2.41798 7.00637 2.3391 7.25288 2.3391 7.52897C2.3391 7.75998 2.39403 7.9586 2.50391 8.12482C2.6166 8.28822 2.76027 8.42485 2.93494 8.53472C3.10961 8.64178 3.29273 8.73052 3.4843 8.80095C3.67588 8.86857 3.85195 8.9235 4.01254 8.96576L4.89151 9.20241C5.11689 9.26157 5.36763 9.34327 5.64371 9.44751C5.92262 9.55175 6.18885 9.69402 6.4424 9.87432C6.69877 10.0518 6.91006 10.28 7.07628 10.5589C7.2425 10.8378 7.3256 11.1801 7.3256 11.5858C7.3256 12.0535 7.20305 12.476 6.95795 12.8535C6.71567 13.2311 6.3607 13.5311 5.89304 13.7537C5.4282 13.9762 4.86334 14.0875 4.19847 14.0875C3.57868 14.0875 3.042 13.9875 2.58842 13.7875C2.13767 13.5874 1.78269 13.3085 1.52351 12.9507C1.26714 12.593 1.12205 12.1774 1.08825 11.7041H2.17006C2.19824 12.0309 2.30811 12.3014 2.49968 12.5155C2.69407 12.7268 2.93917 12.8845 3.23498 12.9888C3.53361 13.0902 3.85477 13.1409 4.19847 13.1409C4.59852 13.1409 4.95772 13.0761 5.27607 12.9465C5.59441 12.8141 5.84656 12.631 6.03249 12.3972C6.21843 12.1605 6.3114 11.8844 6.3114 11.5689C6.3114 11.2815 6.23111 11.0477 6.07053 10.8674C5.90994 10.6871 5.69865 10.5406 5.43665 10.4279C5.17464 10.3152 4.89151 10.2166 4.58725 10.1321L3.52234 9.82784C2.8462 9.63345 2.31093 9.35595 1.91651 8.99534C1.5221 8.63474 1.32489 8.16285 1.32489 7.57968C1.32489 7.09512 1.45589 6.67253 1.7179 6.31193C1.98272 5.9485 2.33769 5.66678 2.78281 5.46676C3.23075 5.26391 3.73081 5.16249 4.28299 5.16249C4.8408 5.16249 5.33664 5.26251 5.77049 5.46253C6.20434 5.65974 6.54805 5.93019 6.8016 6.27389C7.05797 6.6176 7.19319 7.00778 7.20728 7.44445H6.19308ZM11.6349 14.0706C11.0095 14.0706 10.47 13.9325 10.0164 13.6565C9.56566 13.3776 9.21773 12.9888 8.97263 12.4901C8.73035 11.9887 8.60921 11.4055 8.60921 10.7406C8.60921 10.0758 8.73035 9.48977 8.97263 8.98267C9.21773 8.47275 9.55861 8.07552 9.99529 7.79097C10.4348 7.50362 10.9475 7.35994 11.5335 7.35994C11.8716 7.35994 12.2054 7.41628 12.535 7.52897C12.8646 7.64166 13.1647 7.82478 13.4351 8.07833C13.7056 8.32907 13.9211 8.6615 14.0817 9.07563C14.2423 9.48977 14.3226 9.99969 14.3226 10.6054V11.028H9.31915V10.1659H13.3084C13.3084 9.79966 13.2351 9.47286 13.0886 9.18551C12.9449 8.89815 12.7393 8.67136 12.4716 8.50514C12.2068 8.33893 11.8941 8.25582 11.5335 8.25582C11.1363 8.25582 10.7926 8.35442 10.5024 8.55163C10.215 8.74602 9.99388 8.99957 9.83893 9.31228C9.68398 9.62499 9.60651 9.96025 9.60651 10.318V10.8928C9.60651 11.3829 9.69102 11.7985 9.86006 12.1394C10.0319 12.4774 10.27 12.7352 10.5742 12.9127C10.8785 13.0874 11.2321 13.1747 11.6349 13.1747C11.8969 13.1747 12.1336 13.1381 12.3449 13.0648C12.559 12.9888 12.7435 12.8761 12.8984 12.7268C13.0534 12.5746 13.1731 12.3859 13.2576 12.1605L14.2211 12.431C14.1197 12.7578 13.9493 13.0451 13.7098 13.293C13.4703 13.5381 13.1745 13.7297 12.8224 13.8678C12.4702 14.003 12.0744 14.0706 11.6349 14.0706ZM18.5611 14.0706C17.9357 14.0706 17.3962 13.9325 16.9426 13.6565C16.4918 13.3776 16.1439 12.9888 15.8988 12.4901C15.6565 11.9887 15.5354 11.4055 15.5354 10.7406C15.5354 10.0758 15.6565 9.48977 15.8988 8.98267C16.1439 8.47275 16.4848 8.07552 16.9215 7.79097C17.3609 7.50362 17.8737 7.35994 18.4597 7.35994C18.7977 7.35994 19.1316 7.41628 19.4612 7.52897C19.7908 7.64166 20.0908 7.82478 20.3613 8.07833C20.6318 8.32907 20.8473 8.6615 21.0079 9.07563C21.1684 9.48977 21.2487 9.99969 21.2487 10.6054V11.028H16.2453V10.1659H20.2345C20.2345 9.79966 20.1613 9.47286 20.0148 9.18551C19.8711 8.89815 19.6654 8.67136 19.3978 8.50514C19.133 8.33893 18.8203 8.25582 18.4597 8.25582C18.0624 8.25582 17.7187 8.35442 17.4286 8.55163C17.1412 8.74602 16.92 8.99957 16.7651 9.31228C16.6102 9.62499 16.5327 9.96025 16.5327 10.318V10.8928C16.5327 11.3829 16.6172 11.7985 16.7862 12.1394C16.9581 12.4774 17.1961 12.7352 17.5004 12.9127C17.8047 13.0874 18.1582 13.1747 18.5611 13.1747C18.8231 13.1747 19.0597 13.1381 19.271 13.0648C19.4851 12.9888 19.6697 12.8761 19.8246 12.7268C19.9796 12.5746 20.0993 12.3859 20.1838 12.1605L21.1473 12.431C21.0459 12.7578 20.8754 13.0451 20.636 13.293C20.3965 13.5381 20.1007 13.7297 19.7486 13.8678C19.3964 14.003 19.0006 14.0706 18.5611 14.0706ZM28.0228 14.0875C27.6115 14.0875 27.2382 14.01 26.9029 13.8551C26.5677 13.6973 26.3014 13.4705 26.1042 13.1747C25.907 12.8761 25.8084 12.5155 25.8084 12.0929C25.8084 11.721 25.8817 11.4196 26.0282 11.1886C26.1747 10.9547 26.3705 10.7716 26.6156 10.6392C26.8607 10.5068 27.1311 10.4082 27.4269 10.3434C27.7256 10.2758 28.0256 10.2222 28.327 10.1828C28.7214 10.1321 29.0412 10.0941 29.2863 10.0687C29.5342 10.0405 29.7145 9.99405 29.8272 9.92926C29.9427 9.86446 30.0005 9.75177 30.0005 9.59119V9.55738C30.0005 9.14043 29.8864 8.81645 29.6582 8.58543C29.4328 8.35442 29.0905 8.23892 28.6313 8.23892C28.1552 8.23892 27.7819 8.34315 27.5114 8.55163C27.241 8.7601 27.0508 8.98266 26.941 9.21931L25.9944 8.88124C26.1634 8.48683 26.3888 8.17975 26.6705 7.96001C26.955 7.73745 27.2649 7.5825 27.6002 7.49517C27.9383 7.40501 28.2707 7.35994 28.5975 7.35994C28.806 7.35994 29.0454 7.38529 29.3159 7.436C29.5892 7.4839 29.8526 7.58391 30.1061 7.73604C30.3625 7.88817 30.5752 8.11777 30.7442 8.42485C30.9133 8.73193 30.9978 9.14325 30.9978 9.6588V13.9354H30.0005V13.0564H29.9498C29.8821 13.1972 29.7695 13.348 29.6117 13.5086C29.4539 13.6691 29.244 13.8058 28.982 13.9185C28.72 14.0311 28.4003 14.0875 28.0228 14.0875ZM28.1749 13.1916C28.5693 13.1916 28.9017 13.1141 29.1722 12.9592C29.4455 12.8042 29.6511 12.6042 29.7892 12.3591C29.93 12.114 30.0005 11.8562 30.0005 11.5858V10.673C29.9582 10.7237 29.8652 10.7702 29.7216 10.8125C29.5807 10.8519 29.4173 10.8871 29.2314 10.9181C29.0482 10.9463 28.8694 10.9716 28.6947 10.9942C28.5228 11.0139 28.3834 11.0308 28.2763 11.0449C28.0171 11.0787 27.7749 11.1336 27.5495 11.2097C27.3269 11.2829 27.1466 11.3942 27.0086 11.5435C26.8733 11.69 26.8057 11.8901 26.8057 12.1436C26.8057 12.4901 26.9339 12.7521 27.1903 12.9296C27.4495 13.1043 27.7777 13.1916 28.1749 13.1916ZM33.8154 5.28082V13.9354H32.8181V5.28082H33.8154ZM36.6393 5.28082V13.9354H35.642V5.28082H36.6393Z" fill="#22C55E"/>
<path d="M46.2104 14.9264L50.2067 10.9301L46.2104 6.93378" stroke="#22C55E" stroke-width="2" stroke-linecap="round" stroke-linejoin="round"/>
</svg>
