<svg width="21" height="21" viewBox="0 0 21 21" fill="none" xmlns="http://www.w3.org/2000/svg">
<path d="M11.0574 2.02429H10.691C10.2493 2.02429 9.82567 2.19976 9.51333 2.5121C9.20099 2.82444 9.02552 3.24807 9.02552 3.68978V3.83968C9.02522 4.13174 8.94812 4.41859 8.80196 4.67145C8.6558 4.92431 8.44571 5.13429 8.19277 5.28032L7.83469 5.48851C7.58151 5.63469 7.2943 5.71164 7.00195 5.71164C6.70959 5.71164 6.42239 5.63469 6.1692 5.48851L6.04429 5.42189C5.66212 5.20143 5.20808 5.14163 4.78185 5.2556C4.35562 5.36957 3.99203 5.64801 3.7709 6.02979L3.58769 6.34624C3.36724 6.72841 3.30743 7.18245 3.4214 7.60868C3.53537 8.03491 3.81381 8.3985 4.1956 8.61963L4.32051 8.70291C4.57223 8.84823 4.78153 9.0569 4.92762 9.30817C5.07371 9.55945 5.1515 9.84458 5.15325 10.1352V10.5599C5.15442 10.8534 5.07802 11.142 4.93178 11.3964C4.78555 11.6509 4.57467 11.8622 4.32051 12.0089L4.1956 12.0839C3.81381 12.305 3.53537 12.6686 3.4214 13.0948C3.30743 13.521 3.36724 13.9751 3.58769 14.3572L3.7709 14.6737C3.99203 15.0555 4.35562 15.3339 4.78185 15.4479C5.20808 15.5619 5.66212 15.502 6.04429 15.2816L6.1692 15.215C6.42239 15.0688 6.70959 14.9918 7.00195 14.9918C7.2943 14.9918 7.58151 15.0688 7.83469 15.215L8.19277 15.4232C8.44571 15.5692 8.6558 15.7792 8.80196 16.032C8.94812 16.2849 9.02522 16.5717 9.02552 16.8638V17.0137C9.02552 17.4554 9.20099 17.879 9.51333 18.1914C9.82567 18.5037 10.2493 18.6792 10.691 18.6792H11.0574C11.4991 18.6792 11.9228 18.5037 12.2351 18.1914C12.5474 17.879 12.7229 17.4554 12.7229 17.0137V16.8638C12.7232 16.5717 12.8003 16.2849 12.9465 16.032C13.0926 15.7792 13.3027 15.5692 13.5557 15.4232L13.9137 15.215C14.1669 15.0688 14.4541 14.9918 14.7465 14.9918C15.0388 14.9918 15.326 15.0688 15.5792 15.215L15.7041 15.2816C16.0863 15.502 16.5403 15.5619 16.9666 15.4479C17.3928 15.3339 17.7564 15.0555 17.9775 14.6737L18.1607 14.3489C18.3812 13.9667 18.441 13.5127 18.327 13.0865C18.213 12.6602 17.9346 12.2967 17.5528 12.0755L17.4279 12.0089C17.1738 11.8622 16.9629 11.6509 16.8166 11.3964C16.6704 11.142 16.594 10.8534 16.5952 10.5599V10.1436C16.594 9.85008 16.6704 9.56151 16.8166 9.30706C16.9629 9.05261 17.1738 8.84132 17.4279 8.69458L17.5528 8.61963C17.9346 8.3985 18.213 8.03491 18.327 7.60868C18.441 7.18245 18.3812 6.72841 18.1607 6.34624L17.9775 6.02979C17.7564 5.64801 17.3928 5.36957 16.9666 5.2556C16.5403 5.14163 16.0863 5.20143 15.7041 5.42189L15.5792 5.48851C15.326 5.63469 15.0388 5.71164 14.7465 5.71164C14.4541 5.71164 14.1669 5.63469 13.9137 5.48851L13.5557 5.28032C13.3027 5.13429 13.0926 4.92431 12.9465 4.67145C12.8003 4.41859 12.7232 4.13174 12.7229 3.83968V3.68978C12.7229 3.24807 12.5474 2.82444 12.2351 2.5121C11.9228 2.19976 11.4991 2.02429 11.0574 2.02429Z" stroke="#4B5563" stroke-width="2" stroke-linecap="round" stroke-linejoin="round"/>
<path d="M10.8742 12.85C12.2539 12.85 13.3724 11.7315 13.3724 10.3517C13.3724 8.97198 12.2539 7.85349 10.8742 7.85349C9.49447 7.85349 8.37598 8.97198 8.37598 10.3517C8.37598 11.7315 9.49447 12.85 10.8742 12.85Z" stroke="#4B5563" stroke-width="2" stroke-linecap="round" stroke-linejoin="round"/>
</svg>
