<svg width="15" height="15" viewBox="0 0 15 15" fill="none" xmlns="http://www.w3.org/2000/svg">
<g clip-path="url(#clip0_43_4421)">
<path d="M7.705 2.10671C7.73057 2.05507 7.77006 2.01159 7.81902 1.9812C7.86798 1.9508 7.92446 1.93469 7.98209 1.93469C8.03972 1.93469 8.0962 1.9508 8.14516 1.9812C8.19412 2.01159 8.23361 2.05507 8.25917 2.10671L9.60667 4.83613C9.69544 5.01578 9.82648 5.1712 9.98854 5.28906C10.1506 5.40692 10.3388 5.4837 10.5371 5.5128L13.5506 5.9538C13.6077 5.96207 13.6613 5.98616 13.7055 6.02333C13.7496 6.0605 13.7824 6.10928 13.8003 6.16415C13.8181 6.21902 13.8202 6.27778 13.8064 6.3338C13.7926 6.38982 13.7634 6.44085 13.7221 6.48113L11.5428 8.6033C11.399 8.74336 11.2915 8.91624 11.2294 9.10708C11.1673 9.29792 11.1525 9.50098 11.1863 9.6988L11.7008 12.6971C11.7109 12.7542 11.7048 12.813 11.683 12.8667C11.6613 12.9204 11.625 12.967 11.5781 13.001C11.5312 13.0351 11.4757 13.0553 11.4178 13.0593C11.36 13.0633 11.3022 13.051 11.2511 13.0238L8.55725 11.6075C8.37976 11.5143 8.18228 11.4656 7.9818 11.4656C7.78132 11.4656 7.58384 11.5143 7.40634 11.6075L4.71309 13.0238C4.66195 13.0509 4.60424 13.063 4.54652 13.0589C4.4888 13.0548 4.43339 13.0346 4.38659 13.0006C4.3398 12.9666 4.30349 12.9201 4.2818 12.8664C4.26012 12.8128 4.25392 12.7541 4.26392 12.6971L4.77784 9.69938C4.81179 9.50147 4.79708 9.29828 4.73499 9.10732C4.67289 8.91637 4.56528 8.74339 4.42142 8.6033L2.24209 6.48171C2.20043 6.44148 2.17092 6.39036 2.1569 6.33417C2.14288 6.27799 2.14493 6.21899 2.1628 6.16391C2.18068 6.10883 2.21366 6.05987 2.258 6.02262C2.30234 5.98537 2.35625 5.96132 2.41359 5.95321L5.4265 5.5128C5.62499 5.48392 5.81348 5.40725 5.97576 5.28937C6.13804 5.1715 6.26925 5.01595 6.35809 4.83613L7.705 2.10671Z" fill="black" stroke="#FACC15" stroke-width="2" stroke-linecap="round" stroke-linejoin="round"/>
</g>
<defs>
<clipPath id="clip0_43_4421">
<rect width="13.9989" height="13.9989" fill="white" transform="translate(0.982056 0.767944)"/>
</clipPath>
</defs>
</svg>
