<svg width="21" height="21" viewBox="0 0 21 21" fill="none" xmlns="http://www.w3.org/2000/svg">
<g clip-path="url(#clip0_31_1365)">
<path d="M16.7034 12.3816C17.9442 11.1658 19.2017 9.70849 19.2017 7.8015C19.2017 6.58678 18.7191 5.42182 17.8602 4.56288C17.0012 3.70395 15.8363 3.22141 14.6216 3.22141C13.1559 3.22141 12.1233 3.63778 10.8742 4.88689C9.62508 3.63778 8.59248 3.22141 7.12685 3.22141C5.91213 3.22141 4.74717 3.70395 3.88823 4.56288C3.0293 5.42182 2.54675 6.58678 2.54675 7.8015C2.54675 9.71682 3.79587 11.1741 5.04499 12.3816L10.8742 18.2108L16.7034 12.3816Z" stroke="#4B5563" stroke-width="2" stroke-linecap="round" stroke-linejoin="round"/>
</g>
<defs>
<clipPath id="clip0_31_1365">
<rect width="19.9859" height="19.9859" fill="white" transform="translate(0.881226 0.723175)"/>
</clipPath>
</defs>
</svg>
