<svg width="19" height="19" viewBox="0 0 19 19" fill="none" xmlns="http://www.w3.org/2000/svg">
<g clip-path="url(#clip0_31_1083)">
<path d="M14.4631 11.1634C15.5802 10.0688 16.7123 8.75668 16.7123 7.03972C16.7123 5.94605 16.2779 4.89717 15.5045 4.12382C14.7312 3.35048 13.6823 2.91602 12.5886 2.91602C11.2691 2.91602 10.3394 3.2909 9.2147 4.41554C8.09006 3.2909 7.16035 2.91602 5.84076 2.91602C4.74709 2.91602 3.69821 3.35048 2.92486 4.12382C2.15152 4.89717 1.71706 5.94605 1.71706 7.03972C1.71706 8.76418 2.8417 10.0763 3.96635 11.1634L9.2147 16.4118L14.4631 11.1634Z" stroke="#9CA3AF" stroke-width="2" stroke-linecap="round" stroke-linejoin="round"/>
</g>
<defs>
<clipPath id="clip0_31_1083">
<rect width="17.9944" height="17.9944" fill="white" transform="translate(0.217529 0.666748)"/>
</clipPath>
</defs>
</svg>
